<?xml version="1.0" encoding="utf-8"?><svg xmlns="http://www.w3.org/2000/svg" xmlns:xlink="http://www.w3.org/1999/xlink"><symbol viewBox="0 0 20 20" id="azure_sql_20" xmlns="http://www.w3.org/2000/svg">
<path d="M9 4.05627C11.8166 4.05627 13.4145 5.97956 13.6469 8.30226L13.7179 8.30226C14.9589 8.30226 16.0389 9.01087 16.5968 10.0563H15.3852C14.9677 9.59158 14.3737 9.30226 13.718 9.30226L13.6469 9.30226C13.1332 9.30228 12.703 8.91301 12.6518 8.40181C12.4497 6.3812 11.1085 5.05627 9 5.05627C6.88606 5.05627 5.55108 6.37215 5.34818 8.40174C5.29707 8.91297 4.86688 9.30228 4.3531 9.30226L4.28207 9.30226C3.02819 9.30226 2 10.3602 2 11.6793C2 12.9983 3.02819 14.0563 4.28205 14.0563H6V15.0563H4.28205C2.46942 15.0563 1 13.5443 1 11.6793C1 9.87637 2.3731 8.40345 4.10199 8.30726L4.35314 8.30226C4.58687 5.9643 6.18335 4.05627 9 4.05627Z"/>
<path d="M10.2056 11.4908C9.77553 11.1587 9.23584 11.003 8.69629 11.0541C8.50377 11.0397 8.31007 11.0607 8.12482 11.1161C7.92032 11.1774 7.73034 11.2794 7.56634 11.4161C7.40234 11.5528 7.26772 11.7212 7.17059 11.9113C7.07346 12.1014 7.01584 12.3092 7.00119 12.5222L7.00002 12.5394V12.5565C7.00002 13.1346 7.36437 13.4922 7.69261 13.6921C7.99891 13.8786 8.34973 13.9773 8.54146 14.0313L8.62618 14.0551C8.82721 14.1114 9.01365 14.1636 9.16602 14.2565C9.3055 14.3416 9.35802 14.4225 9.35802 14.5565C9.35802 14.8116 9.27369 14.8976 9.20638 14.9436C9.10612 15.012 8.93409 15.0565 8.70002 15.0565H8.67864L8.65734 15.0583C8.35389 15.0843 8.05224 14.9911 7.81641 14.7984C7.60258 14.6236 7.28759 14.6553 7.11285 14.8691C6.93811 15.083 6.9698 15.3979 7.18362 15.5727C7.61524 15.9254 8.16576 16.0984 8.72103 16.0564C9.04142 16.0541 9.43821 15.9961 9.77015 15.7695C10.1423 15.5154 10.358 15.1014 10.358 14.5565C10.358 13.9746 10.028 13.611 9.68676 13.4028C9.40652 13.2318 9.08063 13.1425 8.89476 13.0916L8.83592 13.0753C8.6286 13.0168 8.39563 12.9494 8.21267 12.838C8.04927 12.7385 8.00503 12.6557 8.00043 12.5721C8.0077 12.5004 8.02825 12.4306 8.06109 12.3663C8.09678 12.2965 8.14625 12.2346 8.20652 12.1843C8.26679 12.1341 8.33661 12.0966 8.41176 12.0741C8.48691 12.0516 8.56584 12.0445 8.6438 12.0533L8.70206 12.0599L8.76028 12.0529C9.05767 12.0168 9.35732 12.0992 9.59443 12.2823C9.81299 12.451 10.127 12.4107 10.2958 12.1921C10.4645 11.9735 10.4242 11.6595 10.2056 11.4908Z"/>
<path d="M13 11.0563C12.4696 11.0563 11.9609 11.267 11.5858 11.6421C11.2107 12.0171 11 12.5258 11 13.0563V14.0563C11 14.5867 11.2107 15.0954 11.5858 15.4705C11.9609 15.8456 12.4696 16.0563 13 16.0563C13.4562 16.0563 13.8963 15.9004 14.2492 15.6182L14.7 15.9563C14.9209 16.122 15.2343 16.0772 15.4 15.8563C15.5657 15.6354 15.5209 15.322 15.3 15.1563L14.8492 14.8182C14.9478 14.5788 15 14.3202 15 14.0563V13.0563C15 12.5258 14.7893 12.0171 14.4142 11.6421C14.0391 11.267 13.5304 11.0563 13 11.0563ZM13.3 13.6563C13.0791 13.4906 12.7657 13.5354 12.6 13.7563C12.4343 13.9772 12.4791 14.2906 12.7 14.4563L13.3928 14.9759C13.2698 15.0284 13.1363 15.0563 13 15.0563C12.7348 15.0563 12.4804 14.9509 12.2929 14.7634C12.1054 14.5758 12 14.3215 12 14.0563V13.0563C12 12.7911 12.1054 12.5367 12.2929 12.3492C12.4804 12.1616 12.7348 12.0563 13 12.0563C13.2652 12.0563 13.5196 12.1616 13.7071 12.3492C13.8946 12.5367 14 12.7911 14 13.0563V14.0563C14 14.0965 13.9976 14.1364 13.9928 14.1759L13.3 13.6563Z"/>
<path d="M16.5 11.0563C16.7761 11.0563 17 11.2801 17 11.5563V15.0563H18.5C18.7761 15.0563 19 15.2801 19 15.5563C19 15.8324 18.7761 16.0563 18.5 16.0563H16.5C16.2239 16.0563 16 15.8324 16 15.5563V11.5563C16 11.2801 16.2239 11.0563 16.5 11.0563Z"/>
</symbol><symbol viewBox="0 0 24 24" id="azure_sql_24" xmlns="http://www.w3.org/2000/svg">
<path d="M6.08664 9.75C6.56096 7.04276 8.92458 5 11.75 5C14.5754 5 16.939 7.04276 17.4134 9.75L17.5 9.75C19.4728 9.75 21.112 11.1781 21.4402 13.0569C21.2146 12.956 20.9639 12.8999 20.6992 12.8999C20.4009 12.8999 20.1389 12.9726 19.9132 13.0946C19.6253 12.0318 18.6539 11.25 17.5 11.25L16.7439 11.25C16.344 11.25 16.0144 10.9363 15.9948 10.5369C15.8837 8.28125 14.018 6.5 11.75 6.5C9.48202 6.5 7.61629 8.28125 7.50523 10.5369C7.48557 10.9363 7.156 11.25 6.75612 11.25L6 11.25C4.61929 11.25 3.5 12.3693 3.5 13.75C3.5 15.1307 4.61929 16.25 6 16.25H9.23727C9.31263 16.6894 9.49995 17.1006 9.79922 17.3999L9.69922 17.4999C9.63177 17.5786 9.5719 17.6623 9.5199 17.75H6C3.79086 17.75 2 15.9591 2 13.75C2 11.5409 3.79086 9.75 6.00002 9.75L6.08664 9.75Z" fill="black"/>
<path d="M13.2341 14.1268C12.9676 14.0358 12.7032 14.0082 12.4366 14.0058C12.2966 13.9943 12.1456 14.0016 12.0271 14.0128C11.8939 14.0253 11.7195 14.0503 11.5703 14.0984C11.3221 14.1784 11.0951 14.3104 10.902 14.4835C10.709 14.6564 10.5539 14.8666 10.4432 15.0995C10.3326 15.3323 10.268 15.5846 10.2515 15.8414L10.25 15.8653V15.8893C10.25 16.6033 10.6731 17.0567 11.0606 17.3104C11.4099 17.5391 11.8058 17.6587 12.0052 17.719L12.0905 17.7448C12.308 17.8106 12.4675 17.8588 12.5953 17.9426C12.6526 17.9802 12.6756 18.0089 12.6851 18.0245C12.6912 18.0344 12.7063 18.0607 12.7063 18.1298C12.7063 18.3156 12.6487 18.3764 12.6182 18.4025C12.5705 18.4431 12.4582 18.5 12.25 18.5C11.9109 18.5 11.6632 18.4187 11.4951 18.271C11.184 17.9976 10.7101 18.0281 10.4367 18.3393C10.1632 18.6504 10.1938 19.1243 10.5049 19.3977C11.0379 19.8662 11.6896 20 12.25 20C12.7137 20 13.2045 19.8741 13.592 19.5434C13.9966 19.198 14.2063 18.6987 14.2063 18.1298C14.2063 17.4189 13.8271 16.9567 13.418 16.6884C13.0933 16.4754 12.7165 16.3649 12.5258 16.309L12.5243 16.3086C12.5031 16.3024 12.4842 16.2968 12.468 16.2919C12.2474 16.2249 12.0393 16.1583 11.8823 16.0555C11.8111 16.0088 11.7788 15.9719 11.7655 15.9517C11.7592 15.942 11.7532 15.9314 11.7509 15.9095C11.7578 15.8501 11.7741 15.7938 11.7981 15.7432C11.8258 15.6849 11.8624 15.637 11.9031 15.6006C11.9427 15.5651 11.9852 15.5411 12.0273 15.5271C12.0306 15.5263 12.0427 15.5234 12.0632 15.5198C12.0923 15.5147 12.1285 15.5099 12.1676 15.5062C12.2067 15.5025 12.2433 15.5005 12.273 15.5001C12.2944 15.4998 12.3062 15.5003 12.3096 15.5005L12.3106 15.5005L12.353 15.5057L12.3984 15.5057C12.5876 15.5057 12.6839 15.5239 12.7494 15.5463C12.8112 15.5674 12.8906 15.6075 13.0209 15.7157C13.3395 15.9803 13.8124 15.9365 14.077 15.6179C14.3416 15.2992 14.2978 14.8263 13.9792 14.5617C13.7541 14.3749 13.5171 14.2234 13.2341 14.1268Z"/>
<path d="M17 14C16.3728 14 15.7921 14.281 15.3788 14.746C14.9681 15.208 14.75 15.8177 14.75 16.4375V17.5625C14.75 18.1823 14.9681 18.792 15.3788 19.254C15.7921 19.719 16.3728 20 17 20C17.3734 20 17.7304 19.9004 18.0454 19.7216L18.3 19.9125C18.6314 20.1611 19.1015 20.0939 19.35 19.7625C19.5986 19.4312 19.5314 18.9611 19.2 18.7125L19.0399 18.5924C19.1784 18.2697 19.25 17.9178 19.25 17.5625V16.4375C19.25 15.8177 19.0319 15.208 18.6212 14.746C18.2079 14.281 17.6272 14 17 14ZM17.45 17.4C17.1187 17.1515 16.6486 17.2187 16.4 17.55C16.3411 17.6286 16.2999 17.715 16.2758 17.8043C16.259 17.7271 16.25 17.646 16.25 17.5625V16.4375C16.25 16.1622 16.348 15.9134 16.4999 15.7425C16.6492 15.5745 16.8315 15.5 17 15.5C17.1685 15.5 17.3508 15.5745 17.5001 15.7425C17.652 15.9134 17.75 16.1622 17.75 16.4375V17.5625C17.75 17.5831 17.7495 17.6035 17.7484 17.6238L17.45 17.4Z"/>
<path d="M20.75 14C21.1642 14 21.5 14.3358 21.5 14.75V18.5H23C23.4142 18.5 23.75 18.8358 23.75 19.25C23.75 19.6642 23.4142 20 23 20H20.75C20.3358 20 20 19.6642 20 19.25V14.75C20 14.3358 20.3358 14 20.75 14Z"/>
</symbol><symbol viewBox="0 0 20 20" id="connected_data_factory_20_regular" xmlns="http://www.w3.org/2000/svg">
<path d="M6 14.5H7.5V16H6V14.5Z"/>
<path d="M11.5 14.5H10V16H11.5V14.5Z"/>
<path d="M14 14.5H15.5V16H14V14.5Z"/>
<path d="M2 3.3494V18H18L17.968 11.4137V7.5261L13.488 11.3494V7.5261L9.104 11.3494V3.3494C9.104 2.95378 8.58691 2.55817 7.75915 2.29858C7.56579 2.23793 7.35548 2.18472 7.13085 2.14065C6.6771 2.05165 6.16492 2 5.616 2C3.632 2 2 2.64257 2 3.3494ZM3.92004 3.21894C4.3325 3.0986 4.93164 3.01406 5.616 3.01406C6.11859 3.01406 6.57373 3.05529 6.94289 3.12285C7.11859 3.15746 7.28067 3.19801 7.42736 3.24269C7.38486 3.25749 7.33843 3.27236 7.28796 3.28708C6.87457 3.40769 6.28315 3.49197 5.616 3.49197C4.93164 3.49197 4.3325 3.40742 3.92004 3.28708C3.88119 3.27575 3.84491 3.26435 3.81113 3.25301C3.84491 3.24167 3.88119 3.23028 3.92004 3.21894ZM3.63996 4.24706C4.1635 4.39981 4.86036 4.49197 5.616 4.49197C6.35685 4.49197 7.04543 4.39954 7.56804 4.24706C7.76058 4.19088 7.94398 4.12273 8.104 4.04034V13.5484L12.488 9.72507V13.5175L16.968 9.69417L16.968 11.4137L16.9951 17H3V3.97969C3.1815 4.09094 3.40436 4.17832 3.63996 4.24706ZM3.4671 3.41978C3.4671 3.41978 3.46883 3.41733 3.47441 3.41262C3.47024 3.41746 3.4671 3.41978 3.4671 3.41978Z"/>
</symbol><symbol viewBox="0 0 20 20" id="data_warehouse_20_filled" xmlns="http://www.w3.org/2000/svg">
  <path d="M11.0025 2.38432C10.4323 1.87189 9.56767 1.87189 8.9975 2.38432L3.4975 7.32728C3.18086 7.61186 3 8.0176 3 8.4434V15.4996C3 16.3282 3.67157 17 4.5 17H15.5C16.3284 17 17 16.3282 17 15.4996V8.4434C17 8.0176 16.8191 7.61186 16.5025 7.32728L11.0025 2.38432ZM7 11C6.44772 11 6 10.5523 6 10C6 9.44772 6.44772 9 7 9C7.55228 9 8 9.44772 8 10C8 10.5523 7.55228 11 7 11ZM11 10C11 10.5523 10.5523 11 10 11C9.44772 11 9 10.5523 9 10C9 9.44772 9.44772 9 10 9C10.5523 9 11 9.44772 11 10ZM13 11C12.4477 11 12 10.5523 12 10C12 9.44772 12.4477 9 13 9C13.5523 9 14 9.44772 14 10C14 10.5523 13.5523 11 13 11ZM8 13C8 13.5523 7.55228 14 7 14C6.44772 14 6 13.5523 6 13C6 12.4477 6.44772 12 7 12C7.55228 12 8 12.4477 8 13ZM10 14C9.44772 14 9 13.5523 9 13C9 12.4477 9.44772 12 10 12C10.5523 12 11 12.4477 11 13C11 13.5523 10.5523 14 10 14ZM14 13C14 13.5523 13.5523 14 13 14C12.4477 14 12 13.5523 12 13C12 12.4477 12.4477 12 13 12C13.5523 12 14 12.4477 14 13Z"/>
</symbol><symbol viewBox="0 0 20 20" id="data_warehouse_20_regular" xmlns="http://www.w3.org/2000/svg">
  <path d="M7 11C7.55228 11 8 10.5523 8 10C8 9.44772 7.55228 9 7 9C6.44772 9 6 9.44772 6 10C6 10.5523 6.44772 11 7 11ZM10 11C10.5523 11 11 10.5523 11 10C11 9.44772 10.5523 9 10 9C9.44772 9 9 9.44772 9 10C9 10.5523 9.44772 11 10 11ZM14 10C14 10.5523 13.5523 11 13 11C12.4477 11 12 10.5523 12 10C12 9.44772 12.4477 9 13 9C13.5523 9 14 9.44772 14 10ZM7 14C7.55228 14 8 13.5523 8 13C8 12.4477 7.55228 12 7 12C6.44772 12 6 12.4477 6 13C6 13.5523 6.44772 14 7 14ZM11 13C11 13.5523 10.5523 14 10 14C9.44772 14 9 13.5523 9 13C9 12.4477 9.44772 12 10 12C10.5523 12 11 12.4477 11 13ZM13 14C13.5523 14 14 13.5523 14 13C14 12.4477 13.5523 12 13 12C12.4477 12 12 12.4477 12 13C12 13.5523 12.4477 14 13 14ZM8.9975 2.38432C9.56767 1.87189 10.4323 1.87189 11.0025 2.38432L16.5025 7.32728C16.8191 7.61186 17 8.0176 17 8.4434V15.4996C17 16.3282 16.3284 17 15.5 17H4.5C3.67157 17 3 16.3282 3 15.4996V8.4434C3 8.0176 3.18086 7.61186 3.4975 7.32728L8.9975 2.38432ZM10.3342 3.12839C10.1441 2.95759 9.85589 2.95759 9.66583 3.12839L4.16583 8.07136C4.06029 8.16622 4 8.30147 4 8.4434V15.4996C4 15.7758 4.22386 15.9997 4.5 15.9997H15.5C15.7761 15.9997 16 15.7758 16 15.4996V8.4434C16 8.30147 15.9397 8.16622 15.8342 8.07136L10.3342 3.12839Z"/>
</symbol><symbol viewBox="0 0 24 24" id="data_warehouse_24_filled" xmlns="http://www.w3.org/2000/svg">
  <path d="M13.4399 2.53194C12.6012 1.82485 11.3747 1.82571 10.537 2.53397L3.79734 8.23195C3.29168 8.65946 3 9.28801 3 9.95017V19.25C3 20.2165 3.7835 21 4.75 21H19.25C20.2165 21 21 20.2165 21 19.25V9.95145C21 9.28818 20.7073 8.65871 20.2002 8.23119L13.4399 2.53194ZM9 11.75C9 12.4404 8.44036 13 7.75 13C7.05964 13 6.5 12.4404 6.5 11.75C6.5 11.0596 7.05964 10.5 7.75 10.5C8.44036 10.5 9 11.0596 9 11.75ZM13.25 11.75C13.25 12.4404 12.6904 13 12 13C11.3096 13 10.75 12.4404 10.75 11.75C10.75 11.0596 11.3096 10.5 12 10.5C12.6904 10.5 13.25 11.0596 13.25 11.75ZM17.5 11.75C17.5 12.4404 16.9404 13 16.25 13C15.5596 13 15 12.4404 15 11.75C15 11.0596 15.5596 10.5 16.25 10.5C16.9404 10.5 17.5 11.0596 17.5 11.75ZM9 15.75C9 16.4404 8.44036 17 7.75 17C7.05964 17 6.5 16.4404 6.5 15.75C6.5 15.0596 7.05964 14.5 7.75 14.5C8.44036 14.5 9 15.0596 9 15.75ZM12 17C11.3096 17 10.75 16.4404 10.75 15.75C10.75 15.0596 11.3096 14.5 12 14.5C12.6904 14.5 13.25 15.0596 13.25 15.75C13.25 16.4404 12.6904 17 12 17ZM16.25 17C15.5596 17 15 16.4404 15 15.75C15 15.0596 15.5596 14.5 16.25 14.5C16.9404 14.5 17.5 15.0596 17.5 15.75C17.5 16.4404 16.9404 17 16.25 17Z"/>
</symbol><symbol viewBox="0 0 24 24" id="data_warehouse_24_regular" xmlns="http://www.w3.org/2000/svg">
  <path d="M7.75 10.5C8.44036 10.5 9 11.0596 9 11.75C9 12.4404 8.44036 13 7.75 13C7.05964 13 6.5 12.4404 6.5 11.75C6.5 11.0596 7.05964 10.5 7.75 10.5ZM12 10.5C12.6904 10.5 13.25 11.0596 13.25 11.75C13.25 12.4404 12.6904 13 12 13C11.3096 13 10.75 12.4404 10.75 11.75C10.75 11.0596 11.3096 10.5 12 10.5ZM17.5 11.75C17.5 11.0596 16.9404 10.5 16.25 10.5C15.5596 10.5 15 11.0596 15 11.75C15 12.4404 15.5596 13 16.25 13C16.9404 13 17.5 12.4404 17.5 11.75ZM9 15.75C9 15.0596 8.44036 14.5 7.75 14.5C7.05964 14.5 6.5 15.0596 6.5 15.75C6.5 16.4404 7.05964 17 7.75 17C8.44036 17 9 16.4404 9 15.75ZM13.25 15.75C13.25 15.0596 12.6904 14.5 12 14.5C11.3096 14.5 10.75 15.0596 10.75 15.75C10.75 16.4404 11.3096 17 12 17C12.6904 17 13.25 16.4404 13.25 15.75ZM16.25 14.5C16.9404 14.5 17.5 15.0596 17.5 15.75C17.5 16.4404 16.9404 17 16.25 17C15.5596 17 15 16.4404 15 15.75C15 15.0596 15.5596 14.5 16.25 14.5ZM10.537 2.53397C11.3747 1.82571 12.6012 1.82485 13.4399 2.53194L20.2002 8.23119C20.7073 8.65871 21 9.28818 21 9.95145V19.25C21 20.2165 20.2165 21 19.25 21H4.75C3.7835 21 3 20.2165 3 19.25V9.95017C3 9.28801 3.29168 8.65946 3.79734 8.23195L10.537 2.53397ZM12.4731 3.67878C12.1935 3.44308 11.7847 3.44337 11.5054 3.67946L4.76578 9.37743C4.59723 9.51994 4.5 9.72945 4.5 9.95017V19.25C4.5 19.3881 4.61193 19.5 4.75 19.5H19.25C19.3881 19.5 19.5 19.3881 19.5 19.25V9.95145C19.5 9.73036 19.4024 9.52054 19.2334 9.37803L12.4731 3.67878Z"/>
</symbol><symbol viewBox="0 0 32 32" fill="none" id="datamart_32" xmlns="http://www.w3.org/2000/svg">
<path d="M13.6678 20.1132C14.2815 20.1132 14.7791 19.6156 14.7791 19.0019C14.7791 18.3881 14.2815 17.8905 13.6678 17.8905C13.054 17.8905 12.5565 18.3881 12.5565 19.0019C12.5565 19.6156 13.054 20.1132 13.6678 20.1132ZM18.113 19.0019C18.113 19.6156 17.6155 20.1132 17.0017 20.1132C16.388 20.1132 15.8904 19.6156 15.8904 19.0019C15.8904 18.3881 16.388 17.8905 17.0017 17.8905C17.6155 17.8905 18.113 18.3881 18.113 19.0019ZM20.3357 20.1132C20.9494 20.1132 21.447 19.6156 21.447 19.0019C21.447 18.3881 20.9494 17.8905 20.3357 17.8905C19.7219 17.8905 19.2244 18.3881 19.2244 19.0019C19.2244 19.6156 19.7219 20.1132 20.3357 20.1132ZM10.3338 9.3255C10.5422 9.11709 10.8249 9 11.1196 9H22.8838C23.1785 9 23.4612 9.11708 23.6696 9.3255L26.6052 12.261C27.4523 13.1082 26.8523 14.5566 25.6543 14.5566H24.7809V22.3358C24.7809 23.5633 23.7858 24.5584 22.5583 24.5584H11.4451C10.2176 24.5584 9.22251 23.5633 9.22251 22.3358V14.5566H8.3491C7.15111 14.5566 6.55114 13.1082 7.39826 12.2611L10.3338 9.3255ZM23.6696 22.3358V14.5566H10.3338V22.3358C10.3338 22.9496 10.8314 23.4471 11.4451 23.4471H22.5583C23.1721 23.4471 23.6696 22.9496 23.6696 22.3358ZM25.6543 13.4453C25.8622 13.4453 25.9664 13.1939 25.8193 13.0469L22.8838 10.1113H11.1196L8.18408 13.0469C8.03706 13.1939 8.14118 13.4453 8.3491 13.4453H25.6543Z" fill="#212121"/>
</symbol><symbol viewBox="0 0 32 32" fill="none" id="dataset_32" xmlns="http://www.w3.org/2000/svg">
<rect width="32" height="32" rx="2" fill="#C94F0F"/>
<path d="M15.5 9C15.875 9 16.2891 9.02083 16.7422 9.0625C17.2005 9.10417 17.6562 9.17708 18.1094 9.28125C18.5677 9.38021 19.0026 9.51823 19.4141 9.69531C19.8255 9.8724 20.1719 10.0938 20.4531 10.3594C20.6146 10.5104 20.7448 10.6823 20.8438 10.875C20.9479 11.0677 21 11.276 21 11.5V20.5C21 20.7344 20.9479 20.9453 20.8438 21.1328C20.7448 21.3151 20.6146 21.4844 20.4531 21.6406C20.1823 21.9062 19.8385 22.1276 19.4219 22.3047C19.0104 22.4766 18.5729 22.6146 18.1094 22.7188C17.651 22.8229 17.1927 22.8958 16.7344 22.9375C16.276 22.9792 15.8646 23 15.5 23C15.125 23 14.7083 22.9792 14.25 22.9375C13.7969 22.8958 13.3411 22.8255 12.8828 22.7266C12.4297 22.6224 11.9974 22.4818 11.5859 22.3047C11.1745 22.1276 10.8281 21.9062 10.5469 21.6406C10.3854 21.4896 10.2526 21.3177 10.1484 21.125C10.0495 20.9323 10 20.724 10 20.5V11.5C10 11.2656 10.0495 11.0573 10.1484 10.875C10.2526 10.6875 10.3854 10.5156 10.5469 10.3594C10.8177 10.0938 11.1589 9.875 11.5703 9.70312C11.987 9.52604 12.4245 9.38542 12.8828 9.28125C13.3464 9.17708 13.8073 9.10417 14.2656 9.0625C14.724 9.02083 15.1354 9 15.5 9ZM15.5 10C15.2344 10 14.9557 10.0104 14.6641 10.0312C14.3776 10.0469 14.0885 10.0781 13.7969 10.125C13.5052 10.1667 13.2188 10.224 12.9375 10.2969C12.6615 10.3646 12.3984 10.4479 12.1484 10.5469C12.0703 10.5781 11.9661 10.6276 11.8359 10.6953C11.7057 10.7578 11.5781 10.8307 11.4531 10.9141C11.3281 10.9974 11.2214 11.0911 11.1328 11.1953C11.0443 11.2943 11 11.3958 11 11.5C11 11.5417 11.0078 11.5807 11.0234 11.6172C11.0391 11.6536 11.0599 11.6901 11.0859 11.7266C11.1953 11.8932 11.3516 12.0391 11.5547 12.1641C11.763 12.2891 11.9948 12.3984 12.25 12.4922C12.5104 12.5859 12.7865 12.6667 13.0781 12.7344C13.3698 12.7969 13.6589 12.849 13.9453 12.8906C14.237 12.9271 14.5156 12.9557 14.7812 12.9766C15.0521 12.9922 15.2917 13 15.5 13C15.7083 13 15.9453 12.9922 16.2109 12.9766C16.4818 12.9557 16.7604 12.9271 17.0469 12.8906C17.3385 12.849 17.6302 12.7969 17.9219 12.7344C18.2135 12.6667 18.487 12.5859 18.7422 12.4922C19.0026 12.3984 19.2344 12.2891 19.4375 12.1641C19.6406 12.0391 19.7995 11.8932 19.9141 11.7266C19.9401 11.6901 19.9609 11.6536 19.9766 11.6172C19.9922 11.5807 20 11.5417 20 11.5C20 11.3958 19.9557 11.2943 19.8672 11.1953C19.7786 11.0911 19.6719 10.9974 19.5469 10.9141C19.4219 10.8307 19.2943 10.7578 19.1641 10.6953C19.0339 10.6276 18.9297 10.5781 18.8516 10.5469C18.6016 10.4479 18.3359 10.3646 18.0547 10.2969C17.7786 10.224 17.4948 10.1667 17.2031 10.125C16.9115 10.0781 16.6198 10.0469 16.3281 10.0312C16.0417 10.0104 15.7656 10 15.5 10ZM15.5 22C15.7656 22 16.0417 21.9922 16.3281 21.9766C16.6198 21.9557 16.9115 21.9245 17.2031 21.8828C17.4948 21.8359 17.7786 21.7786 18.0547 21.7109C18.3359 21.6432 18.6016 21.5573 18.8516 21.4531C18.9297 21.4219 19.0339 21.375 19.1641 21.3125C19.2943 21.2448 19.4219 21.1693 19.5469 21.0859C19.6719 21.0026 19.7786 20.9115 19.8672 20.8125C19.9557 20.7083 20 20.6042 20 20.5V12.9844C19.7031 13.1771 19.3672 13.3385 18.9922 13.4688C18.6172 13.599 18.2266 13.7031 17.8203 13.7812C17.4193 13.8594 17.0182 13.9167 16.6172 13.9531C16.2161 13.9844 15.8438 14 15.5 14C15.1562 14 14.7812 13.9844 14.375 13.9531C13.974 13.9167 13.5729 13.8594 13.1719 13.7812C12.7708 13.7031 12.3828 13.599 12.0078 13.4688C11.6328 13.3385 11.2969 13.1771 11 12.9844V20.5C11 20.6042 11.0443 20.7083 11.1328 20.8125C11.2214 20.9115 11.3281 21.0026 11.4531 21.0859C11.5781 21.1693 11.7057 21.2448 11.8359 21.3125C11.9661 21.375 12.0703 21.4219 12.1484 21.4531C12.3984 21.5573 12.6615 21.6432 12.9375 21.7109C13.2188 21.7786 13.5052 21.8359 13.7969 21.8828C14.0885 21.9245 14.3776 21.9557 14.6641 21.9766C14.9557 21.9922 15.2344 22 15.5 22Z" fill="white"/>
</symbol><symbol viewBox="0 0 20 20" id="di_dataflow_20" xmlns="http://www.w3.org/2000/svg">
<path d="M8.61552 2.67037C8.42025 2.47511 8.10367 2.47511 7.90841 2.67037C7.71315 2.86563 7.71315 3.18222 7.90841 3.37748L9.04582 4.51489H7.2522C6.58916 4.51489 5.95327 4.77828 5.48443 5.24713C5.01559 5.71597 4.7522 6.35185 4.7522 7.01489C4.7522 7.29103 4.97605 7.51489 5.2522 7.51489C5.52834 7.51489 5.7522 7.29103 5.7522 7.01489C5.7522 6.61707 5.91023 6.23554 6.19154 5.95423C6.47284 5.67293 6.85437 5.51489 7.2522 5.51489H9.04589L7.90841 6.65237C7.71315 6.84763 7.71315 7.16422 7.90841 7.35948C8.10367 7.55474 8.42025 7.55474 8.61552 7.35948L10.6065 5.36848C10.7003 5.27471 10.753 5.14753 10.753 5.01493C10.753 4.88232 10.7003 4.75514 10.6065 4.66137L8.61552 2.67037Z"/>
<path d="M6.75221 13.2099L5.02521 12.3429C4.9407 12.3025 4.87083 12.2368 4.82521 12.1549C4.78167 12.0766 4.7567 11.9894 4.75221 11.8999C4.75351 11.7677 4.80661 11.6413 4.90009 11.5478C4.99358 11.4543 5.12 11.4012 5.25221 11.3999C5.33104 11.4001 5.40876 11.4186 5.47921 11.4539L7.25221 12.3349L9.02521 11.4519C9.09583 11.4173 9.17354 11.3995 9.25221 11.3999C9.38441 11.4012 9.51083 11.4543 9.60432 11.5478C9.69781 11.6413 9.75091 11.7677 9.75221 11.8999C9.75182 11.9903 9.72767 12.0789 9.68221 12.1569C9.63696 12.2391 9.56698 12.3049 9.48221 12.3449L7.75221 13.2099V15.3999C7.75221 15.5325 7.69953 15.6597 7.60576 15.7535C7.51199 15.8473 7.38482 15.8999 7.25221 15.8999C7.1196 15.8999 6.99242 15.8473 6.89865 15.7535C6.80489 15.6597 6.75221 15.5325 6.75221 15.3999V13.2099Z"/>
<path d="M2.75221 15.2799V11.5149C2.75115 11.2368 2.82693 10.9637 2.97121 10.7259C3.11394 10.484 3.32613 10.2907 3.58021 10.1709L6.58021 8.67094C6.78935 8.56827 7.01923 8.51489 7.25221 8.51489C7.48519 8.51489 7.71507 8.56827 7.92421 8.67094L10.9242 10.1709C11.0572 10.2352 11.1784 10.3198 11.2839 10.4209L14.3073 4.30287C14.3471 4.21828 14.4125 4.14833 14.4943 4.10287C14.571 4.06126 14.657 4.03959 14.7443 4.03987H14.7523L14.7603 4.03687C14.8476 4.03659 14.9335 4.05826 15.0103 4.09987C15.092 4.14533 15.1574 4.21528 15.1973 4.29987L18.5023 10.9909C18.5752 11.1419 18.6354 11.2988 18.6823 11.4599C18.7293 11.6224 18.7529 11.7907 18.7523 11.9599C18.7525 12.2524 18.6712 12.5391 18.5173 12.7879C18.3605 13.0448 18.1629 13.2745 17.9323 13.4679C17.6955 13.6692 17.4324 13.8374 17.1503 13.9679C16.8901 14.0901 16.623 14.197 16.3503 14.2879C15.8562 14.4381 15.3427 14.5146 14.8263 14.5149C14.8133 14.5149 14.8003 14.5136 14.7873 14.5124C14.7743 14.5111 14.7613 14.5099 14.7483 14.5099C14.7353 14.5099 14.7223 14.5111 14.7093 14.5124C14.6963 14.5136 14.6833 14.5149 14.6703 14.5149C14.1539 14.5146 13.6403 14.4381 13.1463 14.2879C12.8736 14.197 12.6064 14.0901 12.3463 13.9679C12.1368 13.871 11.9377 13.7533 11.7522 13.6167V15.2799C11.7533 15.5581 11.6775 15.8311 11.5332 16.0689C11.3905 16.3108 11.1783 16.5042 10.9242 16.6239L7.92421 18.1239C7.71507 18.2266 7.48519 18.28 7.25221 18.28C7.01923 18.28 6.78935 18.2266 6.58021 18.1239L3.58021 16.6239C3.32946 16.5027 3.12055 16.3095 2.98021 16.0689C2.83537 15.8309 2.75666 15.5585 2.75221 15.2799ZM10.7522 11.9684V11.5149C10.7519 11.4243 10.7278 11.3353 10.6822 11.2569C10.6367 11.175 10.5668 11.1093 10.4822 11.0689L7.48221 9.56894C7.4119 9.53311 7.33412 9.51444 7.25521 9.51444C7.1763 9.51444 7.09851 9.53311 7.02821 9.56894L4.02821 11.0689C3.94578 11.1106 3.87782 11.1761 3.83321 11.2569C3.78643 11.3354 3.75869 11.4238 3.75221 11.5149V15.2799C3.75247 15.3706 3.77662 15.4596 3.82221 15.5379C3.86772 15.6199 3.93763 15.6856 4.02221 15.7259L7.02221 17.2259C7.09438 17.2595 7.17266 17.2778 7.25221 17.2799C7.33074 17.2774 7.40796 17.2591 7.47921 17.2259L10.4792 15.7259C10.5616 15.6843 10.6296 15.6188 10.6742 15.5379C10.7199 15.4592 10.7466 15.3708 10.7522 15.2799V11.9802C10.7522 11.9763 10.7522 11.9723 10.7522 11.9684ZM17.0883 12.8579C17.263 12.7395 17.4207 12.5978 17.5573 12.4369C17.6832 12.2913 17.7524 12.1053 17.7523 11.9129C17.75 11.8301 17.7337 11.7483 17.7043 11.6709C17.6771 11.5904 17.6437 11.5121 17.6043 11.4369L14.7523 5.64787L11.8993 11.4369C11.8599 11.5121 11.8264 11.5904 11.7993 11.6709C11.7701 11.7483 11.7542 11.8301 11.7523 11.9129C11.7535 12.1059 11.8245 12.2921 11.9523 12.4369C12.0872 12.5975 12.2433 12.7391 12.4163 12.8579C12.5972 12.9825 12.791 13.0875 12.9943 13.1709C13.1674 13.2438 13.3447 13.3062 13.5253 13.3579C13.9049 13.4619 14.2967 13.5147 14.6903 13.5149H14.8143C15.2079 13.5147 15.5997 13.4619 15.9793 13.3579C16.1598 13.3062 16.3372 13.2438 16.5103 13.1709C16.7136 13.0875 16.9073 12.9825 17.0883 12.8579Z"/>
</symbol><symbol viewBox="0 0 20 20" fill="none" id="event_stream_20" xmlns="http://www.w3.org/2000/svg">
<path d="M1.5 4C1.22386 4 1 3.77614 1 3.5V2.5C1 1.67157 1.67157 1 2.5 1H17.5C18.3284 1 19 1.67157 19 2.5V3.5C19 3.77614 18.7761 4 18.5 4C18.2239 4 18 3.77614 18 3.5V2.5C18 2.22386 17.7761 2 17.5 2L2.5 2C2.22386 2 2 2.22386 2 2.5V3.5C2 3.77614 1.77614 4 1.5 4Z" fill="black"/>
<path d="M7 9C7 6.23858 9.23858 4 12 4H12.5C12.7761 4 13 4.22386 13 4.5C13 4.77614 12.7761 5 12.5 5H12C9.79086 5 8 6.79086 8 9V9.53125C8 9.54548 7.99941 9.55957 7.99824 9.5735C7.95991 10.3721 7.30029 11.0078 6.49219 11.0078H4.53125C4.25511 11.0078 4.03125 10.784 4.03125 10.5078C4.03125 10.2317 4.25511 10.0078 4.53125 10.0078H6.49219C6.77264 10.0078 7 9.78046 7 9.5V9Z" fill="black"/>
<path d="M6.5 13C7.49922 13 8.40065 12.5813 9.03837 11.9097C9.14831 11.0706 9.48939 10.3043 9.99561 9.67677C9.99801 9.62851 9.99944 9.58 9.99986 9.53125C9.99986 8.15054 11.1193 7.03125 12.5 7.03125H13.5C13.7761 7.03125 14 6.80739 14 6.53125C14 6.25511 13.7761 6.03125 13.5 6.03125H12.5C10.6342 6.03125 9.10946 7.49114 9.00564 9.33092C9.00192 9.35549 9 9.38064 9 9.40625L9 9.50002C8.99999 10.8807 7.8807 12 6.5 12L4.49998 12C4.22384 12 3.99998 12.2239 3.99998 12.5C3.99998 12.7761 4.22384 13 4.49998 13H6.5Z" fill="black"/>
<path d="M9.10409 13.4667C9.17765 13.8027 9.28877 14.1247 9.43282 14.4281C8.73487 14.7982 7.93879 15.0078 7.09375 15.0078L5.53125 15.0078C5.25511 15.0078 5.03125 14.784 5.03125 14.5078C5.03125 14.2317 5.25511 14.0078 5.53125 14.0078L7.09375 14.0078C7.8266 14.0078 8.51341 13.8107 9.10409 13.4667Z" fill="black"/>
<path d="M19 16.5C19 16.2239 18.7761 16 18.5 16C18.2239 16 18 16.2239 18 16.5V17.5C18 17.7761 17.7761 18 17.5 18H2.5C2.22386 18 2 17.7761 2 17.5L2 16.5C2 16.2239 1.77614 16 1.5 16C1.22386 16 1 16.2239 1 16.5V17.5C1 18.3284 1.67157 19 2.5 19H17.5C18.3284 19 19 18.3284 19 17.5V16.5Z" fill="black"/>
<path d="M11.458 9.718C11.736 10.779 11.109 11.866 10.051 12.155L10.018 12.164C10.006 12.282 10 12.401 10 12.522C10 12.712 10.015 12.898 10.044 13.08C10.951 13.403 11.499 14.333 11.346 15.28C11.6 15.48 11.883 15.644 12.188 15.768C12.931 15.16 14.012 15.169 14.745 15.794C15.034 15.684 15.305 15.537 15.551 15.359L15.542 15.326C15.264 14.265 15.892 13.178 16.949 12.889L16.982 12.88C16.994 12.762 17 12.643 17 12.522C17 12.332 16.985 12.146 16.956 11.964C16.049 11.642 15.501 10.711 15.654 9.763C15.4 9.564 15.117 9.4 14.813 9.276C14.069 9.884 12.988 9.875 12.255 9.25C11.966 9.36 11.695 9.507 11.449 9.686L11.458 9.718ZM13.5 13.272C13.086 13.272 12.75 12.936 12.75 12.522C12.75 12.108 13.086 11.772 13.5 11.772C13.914 11.772 14.25 12.108 14.25 12.522C14.25 12.936 13.914 13.272 13.5 13.272Z" fill="black"/>
</symbol><symbol viewBox="0 0 24 24" fill="none" id="event_stream_24" xmlns="http://www.w3.org/2000/svg">
<path d="M2 5.25005C2 5.66426 2.33579 6.00005 2.75 6.00005C3.16421 6.00005 3.5 5.66426 3.5 5.25005V4.25C3.5 3.83579 3.83579 3.5 4.25 3.5H19.75C20.1642 3.5 20.5 3.83579 20.5 4.25V5.25004C20.5 5.66426 20.8358 6.00004 21.25 6.00004C21.6642 6.00004 22 5.66426 22 5.25004V4.25C22 3.00736 20.9926 2 19.75 2H4.25C3.00736 2 2 3.00736 2 4.25V5.25005Z" fill="black"/>
<path d="M13.75 5.50005C10.8505 5.50005 8.5 7.85055 8.5 10.75V10.9699L8.50005 10.9785L8.5 10.9871V11.25C8.5 11.6643 8.16421 12 7.75 12H6.75C6.33579 12 6 12.3358 6 12.75C6 13.1643 6.33579 13.5 6.75 13.5H7.75C8.99264 13.5 10 12.4927 10 11.25V10.9871L9.99995 10.9785L10 10.9699V10.75C10 8.67898 11.6789 7.00005 13.75 7.00005H15.25C15.6642 7.00005 16 6.66426 16 6.25005C16 5.83583 15.6642 5.50005 15.25 5.50005H13.75Z" fill="black"/>
<path d="M11 11.25C11 9.45512 12.4551 8.00005 14.25 8.00005H16.25C16.6642 8.00005 17 8.33583 17 8.75005C17 9.16426 16.6642 9.50005 16.25 9.50005H14.25C13.2835 9.50005 12.5 10.2835 12.5 11.25V11.6678C11.5794 12.4918 11 13.6892 11 15.022C11 15.1735 11.0075 15.3233 11.0221 15.4709C10.5124 15.8031 9.90375 15.9961 9.25 15.9961H6.75C6.33579 15.9961 6 15.6604 6 15.2461C6 14.8319 6.33579 14.4961 6.75 14.4961H9.25C10.2165 14.4961 11 13.7126 11 12.7461V11.8689C11 11.8485 11.0008 11.8282 11.0024 11.8082C11.0008 11.7882 11 11.768 11 11.7475V11.25Z" fill="black"/>
<path d="M11.3082 16.662C10.8337 16.8791 10.306 17 9.75 17H7.75C7.33579 17 7 17.3358 7 17.75C7 18.1643 7.33579 18.5 7.75 18.5H9.75C10.589 18.5 11.3821 18.3032 12.0856 17.9532C11.7586 17.5728 11.4942 17.137 11.3082 16.662Z" fill="black"/>
<path d="M22 18.75C22 18.3358 21.6642 18 21.25 18C20.8358 18 20.5 18.3358 20.5 18.75V19.7501C20.5 20.1643 20.1642 20.5001 19.75 20.5001L4.25 20.5001C3.83579 20.5001 3.5 20.1643 3.5 19.7501L3.5 18.75C3.5 18.3358 3.16421 18 2.75 18C2.33579 18 2 18.3358 2 18.75V19.7501C2 20.9927 3.00736 22.0001 4.25 22.0001H19.75C20.9926 22.0001 22 20.9927 22 19.7501V18.75Z" fill="black"/>
<path d="M13.458 12.218C13.736 13.279 13.109 14.366 12.051 14.655L12.018 14.664C12.006 14.782 12 14.901 12 15.022C12 15.212 12.015 15.398 12.044 15.58C12.951 15.903 13.499 16.833 13.346 17.78C13.6 17.98 13.883 18.144 14.188 18.268C14.931 17.66 16.012 17.669 16.745 18.294C17.034 18.184 17.305 18.037 17.551 17.859L17.542 17.826C17.264 16.765 17.892 15.678 18.949 15.389L18.982 15.38C18.994 15.262 19 15.143 19 15.022C19 14.832 18.985 14.646 18.956 14.464C18.049 14.142 17.501 13.211 17.654 12.263C17.4 12.064 17.117 11.9 16.813 11.776C16.069 12.384 14.988 12.375 14.255 11.75C13.966 11.86 13.695 12.007 13.449 12.186L13.458 12.218ZM15.5 15.772C15.086 15.772 14.75 15.436 14.75 15.022C14.75 14.608 15.086 14.272 15.5 14.272C15.914 14.272 16.25 14.608 16.25 15.022C16.25 15.436 15.914 15.772 15.5 15.772Z" fill="black"/>
</symbol><symbol viewBox="0 0 20 20" id="kusto_eventhubdataconnection_20" xmlns="http://www.w3.org/2000/svg">
<path d="M3.26674 12.4485C3.26674 11.881 3.37513 11.3358 3.59192 10.813C3.80871 10.2901 4.11796 9.82465 4.51966 9.41658L6.69075 7.25505L12.745 13.3092L10.5834 15.4803C10.1817 15.882 9.71945 16.1913 9.1966 16.4081C8.67375 16.6249 8.1254 16.7333 7.55154 16.7333C7.08608 16.7333 6.63656 16.6631 6.20298 16.5228C5.76939 16.3826 5.36451 16.169 4.98831 15.882L1.86079 19L1 18.1392L4.11796 15.0117C3.83741 14.6419 3.62699 14.2402 3.48672 13.8066C3.34644 13.373 3.27311 12.9203 3.26674 12.4485ZM7.55154 15.509C7.95962 15.509 8.34857 15.4325 8.71838 15.2795C9.0882 15.1265 9.41977 14.9033 9.71307 14.61L11.0138 13.3092L6.69075 8.98619L5.39001 10.2869C5.10308 10.5739 4.8831 10.9022 4.73007 11.2721C4.57705 11.6419 4.49734 12.034 4.49097 12.4485C4.49097 12.8693 4.57067 13.2646 4.73007 13.6344C4.88948 14.0043 5.10627 14.3294 5.38045 14.61C5.65462 14.8905 5.97981 15.1105 6.356 15.2699C6.7322 15.4293 7.13071 15.509 7.55154 15.509ZM15.882 4.98831C16.1626 5.35813 16.373 5.75983 16.5133 6.19341C16.6536 6.62699 16.7269 7.0797 16.7333 7.55154C16.7333 8.11902 16.6249 8.66419 16.4081 9.18704C16.1913 9.70988 15.882 10.1753 15.4803 10.5834L13.3092 12.745L7.25505 6.69075L9.41658 4.51966C9.81828 4.11796 10.2806 3.80871 10.8034 3.59192C11.3262 3.37513 11.8746 3.26674 12.4485 3.26674C12.9139 3.26674 13.3634 3.33688 13.797 3.47715C14.2306 3.61743 14.6355 3.83103 15.0117 4.11796L18.1392 1L19 1.86079L15.882 4.98831ZM14.61 9.71307C14.8969 9.42614 15.1169 9.09777 15.2699 8.72795C15.423 8.35813 15.5027 7.96599 15.509 7.55154C15.509 7.13071 15.4293 6.73539 15.2699 6.36557C15.1105 5.99575 14.8905 5.67375 14.61 5.39958C14.3294 5.1254 14.0043 4.90542 13.6344 4.73964C13.2646 4.57386 12.8693 4.49097 12.4485 4.49097C12.0404 4.49097 11.6514 4.56748 11.2816 4.72051C10.9118 4.87354 10.5802 5.09671 10.2869 5.39001L8.98619 6.69075L13.3092 11.0138L14.61 9.71307Z"/>
</symbol><symbol viewBox="0 0 20 20" id="lakehouse_20" xmlns="http://www.w3.org/2000/svg">
<path d="M4.00879 16.0002H9.00879C8.30879 16.0002 7.80879 16.4002 7.60879 17.0002H4.00879C3.20879 17.0002 2.50879 16.3002 2.50879 15.5002V8.3002C2.50879 7.8002 2.70879 7.4002 3.00879 7.10019L8.50879 2.2002C9.10879 1.7002 9.90879 1.7002 10.5088 2.2002L16.0088 7.2002C16.3088 7.5002 16.5088 7.9002 16.5088 8.3002V10.0002C16.1088 10.0002 15.8088 10.1002 15.5088 10.4002V8.3002C15.5088 8.18304 15.4745 8.1002 15.446 8.03157C15.4259 7.98304 15.4088 7.94162 15.4088 7.9002L9.90879 3.0002C9.70879 2.8002 9.40879 2.8002 9.20879 3.0002L3.70879 7.9002C3.60879 8.0002 3.50879 8.1002 3.50879 8.3002V15.5002C3.50879 15.8002 3.70879 16.0002 4.00879 16.0002Z"/>
<path d="M12.4906 12.1847C12.8481 12.6247 13.3448 13 14.0087 13C14.6727 13 15.1695 12.6247 15.527 12.1847C15.7035 11.9675 15.8342 11.7478 15.9208 11.5815C15.9638 11.499 15.9951 11.4312 16.0151 11.3855C16.0251 11.3628 16.0322 11.3456 16.0364 11.3351L16.0407 11.3244L16.0412 11.3231C16.1184 11.1189 16.3192 10.9884 16.5373 11.0008C16.7556 11.0133 16.9406 11.1662 16.9938 11.3783L16.9935 11.3772L16.996 11.3862C16.9987 11.3956 17.0033 11.4115 17.0102 11.4329C17.0241 11.476 17.0467 11.5409 17.0797 11.6202C17.1464 11.7802 17.2524 11.9914 17.4088 12.2C17.7156 12.609 18.2052 13 19.0088 13C19.2849 13 19.5088 13.2239 19.5088 13.5C19.5088 13.7761 19.2849 14 19.0088 14C17.8124 14 17.052 13.391 16.6088 12.8C16.558 12.7323 16.5113 12.6647 16.4683 12.5982C16.4174 12.6696 16.3624 12.7424 16.3031 12.8153C15.8481 13.3753 15.0948 14 14.0087 14C12.9227 14 12.1695 13.3753 11.7145 12.8153C11.6552 12.7424 11.6002 12.6696 11.5493 12.5982C11.5063 12.6647 11.4595 12.7323 11.4088 12.8C10.9655 13.391 10.2052 14 9.00879 14C8.73265 14 8.50879 13.7761 8.50879 13.5C8.50879 13.2239 8.73265 13 9.00879 13C9.81236 13 10.302 12.609 10.6088 12.2C10.7652 11.9914 10.8712 11.7802 10.9378 11.6202C10.9709 11.5409 10.9935 11.476 11.0073 11.4329C11.0142 11.4115 11.0189 11.3956 11.0216 11.3862L11.0241 11.3772L11.0238 11.3783C11.077 11.1662 11.2619 11.0133 11.4803 11.0008C11.6984 10.9884 11.8992 11.1189 11.9764 11.3231L11.9769 11.3244L11.9812 11.3351C11.9854 11.3456 11.9925 11.3628 12.0025 11.3855C12.0224 11.4312 12.0537 11.499 12.0967 11.5815C12.1834 11.7478 12.3141 11.9675 12.4906 12.1847Z"/>
<path d="M12.4906 16.1847C12.8481 16.6247 13.3448 17 14.0087 17C14.6727 17 15.1695 16.6247 15.527 16.1847C15.7035 15.9675 15.8342 15.7478 15.9208 15.5815C15.9638 15.499 15.9951 15.4312 16.0151 15.3855C16.0251 15.3628 16.0322 15.3456 16.0364 15.3351L16.0407 15.3244L16.0412 15.3231C16.1184 15.1189 16.3192 14.9884 16.5373 15.0008C16.7556 15.0133 16.9406 15.1662 16.9938 15.3783L16.9935 15.3772L16.996 15.3862C16.9987 15.3956 17.0033 15.4115 17.0102 15.4329C17.0241 15.476 17.0467 15.5409 17.0797 15.6202C17.1464 15.7802 17.2524 15.9914 17.4088 16.2C17.7156 16.609 18.2052 17 19.0088 17C19.2849 17 19.5088 17.2239 19.5088 17.5C19.5088 17.7761 19.2849 18 19.0088 18C17.8124 18 17.052 17.391 16.6088 16.8C16.558 16.7323 16.5113 16.6647 16.4683 16.5982C16.4174 16.6696 16.3624 16.7424 16.3031 16.8153C15.8481 17.3753 15.0948 18 14.0087 18C12.9227 18 12.1695 17.3753 11.7145 16.8153C11.6552 16.7424 11.6002 16.6696 11.5493 16.5982C11.5063 16.6647 11.4595 16.7323 11.4088 16.8C10.9655 17.391 10.2052 18 9.00879 18C8.73265 18 8.50879 17.7761 8.50879 17.5C8.50879 17.2239 8.73265 17 9.00879 17C9.81236 17 10.302 16.609 10.6088 16.2C10.7652 15.9914 10.8712 15.7802 10.9378 15.6202C10.9709 15.5409 10.9935 15.476 11.0073 15.4329C11.0142 15.4115 11.0189 15.3956 11.0216 15.3862L11.0241 15.3772L11.0238 15.3783C11.077 15.1662 11.2619 15.0133 11.4803 15.0008C11.6984 14.9884 11.8992 15.1189 11.9764 15.3231L11.9769 15.3244L11.9812 15.3351C11.9854 15.3456 11.9925 15.3628 12.0025 15.3855C12.0224 15.4312 12.0537 15.499 12.0967 15.5815C12.1834 15.7478 12.3141 15.9675 12.4906 16.1847Z"/>
</symbol><symbol viewBox="0 0 20 20" id="lakehouse_20_filled" xmlns="http://www.w3.org/2000/svg">
<path d="M9 2C9.36897 2 9.72499 2.13599 10 2.38197L15.5 7.29997C15.6573 7.44066 15.7831 7.61296 15.8693 7.80561C15.9555 7.99826 16 8.20693 16 8.41797V10.1519C15.7028 10.1518 15.4117 10.24 15.164 10.4062C14.8964 10.5858 14.6937 10.8467 14.586 11.1504C14.5812 11.1597 14.5755 11.1719 14.5688 11.1863C14.5575 11.2106 14.5432 11.2416 14.525 11.2754C14.4452 11.4294 14.3504 11.5751 14.242 11.7104C13.88 12.1564 13.594 12.1564 13.5 12.1564C13.337 12.1564 13.083 12.1084 12.757 11.7084C12.6483 11.5733 12.5535 11.4275 12.474 11.2734C12.445 11.2174 12.424 11.1724 12.403 11.1254C12.2861 10.8307 12.0807 10.5796 11.8151 10.4066C11.5495 10.2336 11.2368 10.1472 10.92 10.1594H10.914C10.5951 10.1768 10.2903 10.296 10.0441 10.4993C9.79788 10.7027 9.62332 10.9796 9.546 11.2894L9.506 11.3944C9.45275 11.5241 9.38355 11.6468 9.3 11.7594C9.21252 11.8895 9.09286 11.9946 8.95267 12.0647C8.81248 12.1348 8.65653 12.1674 8.5 12.1594C8.10218 12.1594 7.72064 12.3174 7.43934 12.5987C7.15804 12.88 7 13.2616 7 13.6594C7 14.0572 7.15804 14.4388 7.43934 14.7201C7.72064 15.0014 8.10218 15.1594 8.5 15.1594C8.89276 15.1635 9.28069 15.1085 9.65159 14.9986C9.60667 15.0911 9.57118 15.1885 9.546 15.2894L9.506 15.3944C9.45275 15.5241 9.38355 15.6468 9.3 15.7594C9.21252 15.8895 9.09286 15.9946 8.95267 16.0647C8.81248 16.1348 8.65653 16.1674 8.5 16.1594C8.10218 16.1594 7.72064 16.3174 7.43934 16.5987C7.27975 16.7583 7.15983 16.9502 7.08594 17.159H3.5C3.10218 17.159 2.72064 17.0009 2.43934 16.7196C2.15804 16.4383 2 16.0568 2 15.659V8.41797C2 8.20693 2.04454 7.99826 2.1307 7.80561C2.21686 7.61296 2.3427 7.44066 2.5 7.29997L8 2.38197C8.27501 2.13599 8.63103 2 9 2Z"/>
<path d="M11.982 12.344C12.156 12.5867 12.3833 12.7864 12.6464 12.9276C12.9096 13.0689 13.2015 13.1481 13.5 13.159C13.7985 13.1481 14.0904 13.0689 14.3536 12.9276C14.6167 12.7864 14.844 12.5867 15.018 12.344C15.1709 12.157 15.3048 11.9554 15.418 11.742C15.461 11.656 15.492 11.588 15.512 11.542L15.534 11.492V11.481C15.5716 11.3813 15.64 11.2961 15.7294 11.238C15.8187 11.1799 15.9243 11.1519 16.0307 11.1581C16.1371 11.1642 16.2388 11.2042 16.3209 11.2722C16.403 11.3402 16.4612 11.4326 16.487 11.536V11.545L16.501 11.592C16.515 11.635 16.538 11.7 16.571 11.779C16.6569 11.9849 16.7674 12.1796 16.9 12.359C17.0805 12.6135 17.3209 12.8196 17.6 12.9591C17.879 13.0986 18.1881 13.1673 18.5 13.159C18.6326 13.159 18.7598 13.2117 18.8536 13.3055C18.9473 13.3992 19 13.5264 19 13.659C19 13.7916 18.9473 13.9188 18.8536 14.0126C18.7598 14.1063 18.6326 14.159 18.5 14.159C18.0327 14.1669 17.5704 14.0617 17.1526 13.8524C16.7347 13.6431 16.3736 13.3359 16.1 12.957C16.049 12.891 16.003 12.824 15.96 12.757C15.909 12.829 15.854 12.901 15.794 12.974C15.5264 13.3325 15.1809 13.6254 14.7835 13.8307C14.3861 14.036 13.9472 14.1483 13.5 14.159C13.0528 14.1483 12.6139 14.036 12.2165 13.8307C11.8191 13.6254 11.4736 13.3325 11.206 12.974C11.146 12.901 11.091 12.829 11.04 12.757C10.998 12.824 10.951 12.891 10.9 12.957C10.6264 13.3359 10.2653 13.6431 9.84744 13.8524C9.42956 14.0617 8.96729 14.1669 8.5 14.159C8.36739 14.159 8.24021 14.1063 8.14645 14.0126C8.05268 13.9188 8 13.7916 8 13.659C8 13.5264 8.05268 13.3992 8.14645 13.3055C8.24021 13.2117 8.36739 13.159 8.5 13.159C8.81188 13.1673 9.12099 13.0986 9.40004 12.9591C9.67909 12.8196 9.91949 12.6135 10.1 12.359C10.2326 12.1796 10.3431 11.9849 10.429 11.779C10.462 11.7 10.485 11.635 10.499 11.592L10.513 11.545V11.536C10.5388 11.4326 10.597 11.3402 10.6791 11.2722C10.7612 11.2042 10.8629 11.1642 10.9693 11.1581C11.0757 11.1519 11.1813 11.1799 11.2706 11.238C11.36 11.2961 11.4284 11.3813 11.466 11.481V11.492L11.488 11.542C11.508 11.588 11.539 11.656 11.582 11.742C11.6952 11.9554 11.8291 12.157 11.982 12.344Z"/>
<path d="M12.6464 16.9277C12.3833 16.7864 12.156 16.5867 11.982 16.344C11.8291 16.157 11.6952 15.9554 11.582 15.742C11.539 15.656 11.508 15.588 11.488 15.542L11.466 15.492V15.481C11.4284 15.3813 11.36 15.2961 11.2706 15.238C11.1813 15.1799 11.0757 15.1519 10.9693 15.1581C10.8629 15.1642 10.7612 15.2042 10.6791 15.2722C10.597 15.3402 10.5388 15.4326 10.513 15.536V15.545L10.499 15.592C10.485 15.635 10.462 15.7 10.429 15.779C10.3431 15.9849 10.2326 16.1796 10.1 16.359C9.91949 16.6135 9.67909 16.8196 9.40004 16.9591C9.12099 17.0986 8.81188 17.1673 8.5 17.159C8.36739 17.159 8.24021 17.2117 8.14645 17.3055C8.05268 17.3992 8 17.5264 8 17.659C8 17.7916 8.05268 17.9188 8.14645 18.0126C8.24021 18.1063 8.36739 18.159 8.5 18.159C8.96729 18.1669 9.42956 18.0617 9.84744 17.8524C10.2653 17.6431 10.6264 17.3359 10.9 16.957C10.951 16.891 10.998 16.824 11.04 16.757C11.091 16.829 11.146 16.901 11.206 16.974C11.4736 17.3325 11.8191 17.6254 12.2165 17.8307C12.6139 18.036 13.0528 18.1483 13.5 18.159C13.9472 18.1483 14.3861 18.036 14.7835 17.8307C15.1809 17.6254 15.5264 17.3325 15.794 16.974C15.854 16.901 15.909 16.829 15.96 16.757C16.003 16.824 16.049 16.891 16.1 16.957C16.3736 17.3359 16.7347 17.6431 17.1526 17.8524C17.5704 18.0617 18.0327 18.1669 18.5 18.159C18.6326 18.159 18.7598 18.1063 18.8536 18.0126C18.9473 17.9188 19 17.7916 19 17.659C19 17.5264 18.9473 17.3992 18.8536 17.3055C18.7598 17.2117 18.6326 17.159 18.5 17.159C18.1881 17.1673 17.879 17.0986 17.6 16.9591C17.3209 16.8196 17.0805 16.6135 16.9 16.359C16.7674 16.1796 16.6569 15.9849 16.571 15.779C16.538 15.7 16.515 15.635 16.501 15.592L16.487 15.545V15.536C16.4612 15.4326 16.403 15.3402 16.3209 15.2722C16.2388 15.2042 16.1371 15.1642 16.0307 15.1581C15.9243 15.1519 15.8187 15.1799 15.7294 15.238C15.64 15.2961 15.5716 15.3813 15.534 15.481V15.492L15.512 15.542C15.492 15.588 15.461 15.656 15.418 15.742C15.3048 15.9554 15.1709 16.157 15.018 16.344C14.844 16.5867 14.6167 16.7864 14.3536 16.9277C14.0904 17.0689 13.7985 17.1481 13.5 17.159C13.2015 17.1481 12.9096 17.0689 12.6464 16.9277Z"/>
</symbol><symbol viewBox="0 0 24 24" id="lakehouse_24" xmlns="http://www.w3.org/2000/svg">
<path d="M10.0458 2.53373C10.8835 1.82546 12.11 1.8246 12.9487 2.5317L19.709 8.23095C20.2161 8.65846 20.5088 9.28794 20.5088 9.95121V12.7254C20.354 12.4275 20.1343 12.1659 19.8638 11.961C19.6085 11.7678 19.3169 11.6318 19.0088 11.5598V9.95121C19.0088 9.73012 18.9112 9.52029 18.7422 9.37779L11.9819 3.67853C11.7023 3.44284 11.2935 3.44312 11.0142 3.67921L4.27457 9.37719C4.10602 9.51969 4.00879 9.72921 4.00879 9.94993V18.7498C4.00879 18.8878 4.12072 18.9998 4.25879 18.9998H9.40091C9.35378 19.0036 9.30627 19.0037 9.25879 19.0002C8.66205 19.0002 8.08976 19.2373 7.6678 19.6593C7.42837 19.8987 7.24847 20.1865 7.13764 20.4998H4.25879C3.29229 20.4998 2.50879 19.7163 2.50879 18.7498V9.94993C2.50879 9.28776 2.80047 8.65922 3.30613 8.23171L10.0458 2.53373Z"/>
<path d="M15.6079 18.9998H15.4214L15.4248 19.0002H15.6048L15.6079 18.9998Z"/>
<path d="M17.2516 14.5502C17.352 14.4164 17.4374 14.2813 17.5088 14.1545V14.1563C17.5751 14.039 17.6294 13.9287 17.6725 13.8329C17.7168 13.7344 17.7481 13.654 17.7675 13.6007C17.7772 13.5741 17.7838 13.5545 17.7876 13.543L17.7913 13.5317C17.8885 13.2121 18.1856 12.9951 18.5199 13.0001C18.8538 13.005 19.1441 13.2301 19.2322 13.552L19.2348 13.561C19.2379 13.5713 19.2437 13.5896 19.2523 13.6149C19.2697 13.6656 19.2983 13.7432 19.3403 13.8386C19.425 14.0312 19.5595 14.2859 19.7565 14.5373C20.1407 15.0273 20.7523 15.5 21.7588 15.5C22.173 15.5 22.5088 15.8358 22.5088 16.25C22.5088 16.6642 22.173 17 21.7588 17C20.1852 17 19.1719 16.2227 18.5761 15.4627C18.5529 15.4332 18.5303 15.4036 18.5083 15.3741C18.4901 15.3994 18.4715 15.4247 18.4525 15.45C17.9794 16.0809 17.2146 16.7701 16.0948 16.9532C15.9093 16.9835 15.7141 17 15.5088 17C15.2963 17 15.0946 16.9824 14.9033 16.95C13.7941 16.7621 13.0355 16.0772 12.565 15.45C12.546 15.4247 12.5274 15.3994 12.5093 15.3741C12.4873 15.4036 12.4647 15.4332 12.4415 15.4627C11.8457 16.2227 10.8323 17 9.25879 17C8.84458 17 8.50879 16.6642 8.50879 16.25C8.50879 15.8358 8.84458 15.5 9.25879 15.5C10.2652 15.5 10.8769 15.0273 11.2611 14.5373C11.4581 14.2859 11.5926 14.0312 11.6773 13.8386C11.7193 13.7432 11.7479 13.6656 11.7653 13.6149C11.7739 13.5896 11.7796 13.5713 11.7827 13.561L11.7854 13.552C11.8735 13.2301 12.1638 13.005 12.4977 13.0001C12.832 12.9951 13.1291 13.2121 13.2263 13.5317L13.23 13.543C13.2338 13.5545 13.2404 13.5741 13.2501 13.6007C13.2695 13.654 13.3008 13.7344 13.3451 13.8329C13.3882 13.9287 13.4425 14.039 13.5088 14.1563V14.1545C13.5802 14.2813 13.6656 14.4164 13.7659 14.5502C14.1033 15.0004 14.5679 15.3899 15.2184 15.4803C15.3113 15.4932 15.4081 15.5 15.5088 15.5C15.6252 15.5 15.7363 15.4909 15.8423 15.4738C16.4703 15.3726 16.9218 14.9904 17.2516 14.5502Z"/>
<path d="M17.2516 19.5502C17.352 19.4164 17.4374 19.2813 17.5088 19.1545V19.1563C17.5751 19.039 17.6294 18.9287 17.6725 18.8329C17.7168 18.7344 17.7481 18.654 17.7675 18.6007C17.7772 18.5741 17.7838 18.5545 17.7876 18.543L17.7913 18.5317C17.8885 18.2121 18.1856 17.9951 18.5199 18.0001C18.8538 18.005 19.1441 18.2301 19.2322 18.552L19.2348 18.561C19.2379 18.5713 19.2437 18.5896 19.2523 18.6149C19.2697 18.6656 19.2983 18.7432 19.3403 18.8386C19.425 19.0312 19.5595 19.2859 19.7565 19.5373C20.1407 20.0273 20.7523 20.5 21.7588 20.5C22.173 20.5 22.5088 20.8358 22.5088 21.25C22.5088 21.6642 22.173 22 21.7588 22C20.1852 22 19.1719 21.2227 18.5761 20.4627C18.5529 20.4332 18.5303 20.4036 18.5083 20.3741C18.4901 20.3994 18.4715 20.4247 18.4525 20.45C17.9794 21.0809 17.2146 21.7701 16.0948 21.9532C15.9093 21.9835 15.7141 22 15.5088 22C15.2963 22 15.0946 21.9824 14.9033 21.95C13.7941 21.7621 13.0355 21.0772 12.565 20.45C12.546 20.4247 12.5274 20.3994 12.5093 20.3741C12.4873 20.4036 12.4647 20.4332 12.4415 20.4627C11.8457 21.2227 10.8323 22 9.25879 22C8.84458 22 8.50879 21.6642 8.50879 21.25C8.50879 20.8358 8.84458 20.5 9.25879 20.5C10.2652 20.5 10.8769 20.0273 11.2611 19.5373C11.4581 19.2859 11.5926 19.0312 11.6773 18.8386C11.7193 18.7432 11.7479 18.6656 11.7653 18.6149C11.7739 18.5896 11.7796 18.5713 11.7827 18.561L11.7854 18.552C11.8735 18.2301 12.1638 18.005 12.4977 18.0001C12.832 17.9951 13.1291 18.2121 13.2263 18.5317L13.23 18.543C13.2338 18.5545 13.2404 18.5741 13.2501 18.6007C13.2695 18.654 13.3008 18.7344 13.3451 18.8329C13.3882 18.9287 13.4425 19.039 13.5088 19.1563V19.1545C13.5802 19.2813 13.6656 19.4164 13.7659 19.5502C14.1033 20.0004 14.5679 20.3899 15.2184 20.4803C15.3113 20.4932 15.4081 20.5 15.5088 20.5C15.6252 20.5 15.7363 20.4909 15.8423 20.4738C16.4703 20.3726 16.9218 19.9904 17.2516 19.5502Z"/>
</symbol><symbol viewBox="0 0 20 20" id="purview_20" xmlns="http://www.w3.org/2000/svg">
<path d="M10 5C5 5 2 10 2 10C2 10 5 15 10 15C15 15 18 10 18 10C18 10 15 5 10 5ZM12.08 6.351C11.2656 6.39888 10.4716 6.62514 9.75434 7.01377C9.03703 7.40241 8.41389 7.94392 7.929 8.6V8.607C7.7261 8.90164 7.59131 9.23774 7.53441 9.59093C7.4775 9.94412 7.49991 10.3055 7.6 10.649C6.61452 9.89303 5.87084 8.86612 5.46 7.694C6.74205 6.63879 8.34009 6.04252 10 6C10.7078 6.00297 11.4104 6.12153 12.08 6.351ZM8.5 10C8.5 9.70333 8.58797 9.41332 8.7528 9.16664C8.91762 8.91997 9.15189 8.72771 9.42597 8.61418C9.70006 8.50065 10.0017 8.47094 10.2926 8.52882C10.5836 8.5867 10.8509 8.72956 11.0607 8.93934C11.2704 9.14912 11.4133 9.41639 11.4712 9.70736C11.5291 9.99834 11.4994 10.2999 11.3858 10.574C11.2723 10.8481 11.08 11.0824 10.8334 11.2472C10.5867 11.412 10.2967 11.5 10 11.5C9.60218 11.5 9.22064 11.342 8.93934 11.0607C8.65804 10.7794 8.5 10.3978 8.5 10ZM3.213 10C3.64816 9.41598 4.13404 8.87153 4.665 8.373C6.349 12.284 9.389 12.5 10 12.5C10.663 12.5 11.2989 12.2366 11.7678 11.7678C12.2366 11.2989 12.5 10.663 12.5 10C12.5 9.961 12.49 9.925 12.489 9.887C13.1918 10.7184 13.662 11.721 13.852 12.793C12.7118 13.5596 11.3737 13.9788 10 14C6.541 14 4.09 11.184 3.213 10ZM14.73 12.157C14.5354 11.1241 14.0704 10.1612 13.3825 9.36653C12.6946 8.57183 11.8083 7.97367 10.814 7.633C11.9172 7.26283 13.1013 7.20571 14.235 7.468C15.2092 8.1777 16.0697 9.03146 16.787 10C16.1921 10.8004 15.5013 11.5248 14.73 12.157Z"/>
</symbol><symbol viewBox="0 0 24 24" id="purview_24" xmlns="http://www.w3.org/2000/svg">
<path d="M12 4.5C4.5 4.5 0 12 0 12C0 12 4.5 19.5 12 19.5C19.5 19.5 24 12 24 12C24 12 19.5 4.5 12 4.5ZM15.12 6.5265C13.8984 6.59832 12.7075 6.93771 11.6315 7.52066C10.5555 8.10361 9.62084 8.91588 8.8935 9.9V9.9105C8.58915 10.3525 8.38697 10.8566 8.30161 11.3864C8.21625 11.9162 8.24986 12.4583 8.4 12.9735C6.92178 11.8395 5.80626 10.2992 5.19 8.541C7.11307 6.95819 9.51013 6.06378 12 6C13.0617 6.00445 14.1156 6.18229 15.12 6.5265ZM9.75 12C9.75 11.555 9.88196 11.12 10.1292 10.75C10.3764 10.38 10.7278 10.0916 11.139 9.92127C11.5501 9.75097 12.0025 9.70642 12.439 9.79323C12.8754 9.88005 13.2763 10.0943 13.591 10.409C13.9057 10.7237 14.12 11.1246 14.2068 11.561C14.2936 11.9975 14.249 12.4499 14.0787 12.861C13.9084 13.2722 13.62 13.6236 13.25 13.8708C12.88 14.118 12.445 14.25 12 14.25C11.4033 14.25 10.831 14.0129 10.409 13.591C9.98705 13.169 9.75 12.5967 9.75 12ZM1.8195 12C2.47223 11.124 3.20106 10.3073 3.9975 9.5595C6.5235 15.426 11.0835 15.75 12 15.75C12.9946 15.75 13.9484 15.3549 14.6517 14.6517C15.3549 13.9484 15.75 12.9946 15.75 12C15.75 11.9415 15.735 11.8875 15.7335 11.8305C16.7877 13.0776 17.4931 14.5816 17.778 16.1895C16.0677 17.3393 14.0606 17.9683 12 18C6.8115 18 3.135 13.776 1.8195 12ZM19.095 15.2355C18.8031 13.6861 18.1056 12.2419 17.0738 11.0498C16.0419 9.85774 14.7125 8.9605 13.221 8.4495C14.8757 7.89424 16.652 7.80857 18.3525 8.202C19.8137 9.26654 21.1045 10.5472 22.1805 12C21.2882 13.2006 20.252 14.2873 19.095 15.2355Z"/>
</symbol><symbol viewBox="0 0 20 20" id="spark_job_definition_20" xmlns="http://www.w3.org/2000/svg">
<path d="M10.8548 8.14645C10.9486 8.24021 11.0013 8.36739 11.0013 8.5V10.623L12.8493 9.556C12.964 9.49074 13.1 9.47353 13.2274 9.50813C13.3548 9.54272 13.4634 9.62631 13.5294 9.74065C13.5954 9.855 13.6135 9.99081 13.5798 10.1185C13.546 10.2461 13.4632 10.3552 13.3493 10.422L11.5013 11.489L13.3493 12.556C13.4632 12.6228 13.546 12.7319 13.5798 12.8595C13.6135 12.9872 13.5954 13.123 13.5294 13.2373C13.4634 13.3517 13.3548 13.4353 13.2274 13.4699C13.1 13.5045 12.964 13.4873 12.8493 13.422L11.0013 12.355V14.5C11.0013 14.6326 10.9486 14.7598 10.8548 14.8536C10.761 14.9473 10.6339 15 10.5013 15C10.3687 15 10.2415 14.9473 10.1477 14.8536C10.0539 14.7598 10.0013 14.6326 10.0013 14.5V12.355L8.15326 13.422C8.09638 13.4553 8.03346 13.4771 7.96813 13.486C7.90279 13.495 7.83634 13.4909 7.77259 13.474C7.70884 13.4572 7.64905 13.4279 7.59667 13.3878C7.54429 13.3478 7.50035 13.2978 7.46738 13.2407C7.43441 13.1836 7.41306 13.1205 7.40456 13.0551C7.39606 12.9897 7.40058 12.9233 7.41786 12.8597C7.43513 12.796 7.46483 12.7364 7.50523 12.6843C7.54563 12.6322 7.59594 12.5886 7.65326 12.556L9.50126 11.489L7.65326 10.422C7.53936 10.3552 7.45649 10.2461 7.42274 10.1185C7.389 9.99081 7.40711 9.855 7.47313 9.74065C7.53914 9.62631 7.64771 9.54272 7.77513 9.50813C7.90255 9.47353 8.03848 9.49074 8.15326 9.556L10.0013 10.623V8.5C10.0013 8.36739 10.0539 8.24021 10.1477 8.14645C10.2415 8.05268 10.3687 8 10.5013 8C10.6339 8 10.761 8.05268 10.8548 8.14645Z"/>
<path d="M3.50195 6C3.50195 4.34315 4.8451 3 6.50195 3H14.502C16.1588 3 17.502 4.34315 17.502 6V14C17.502 15.6569 16.1588 17 14.502 17H6.50195C4.8451 17 3.50195 15.6569 3.50195 14V6ZM6.50195 4C5.39738 4 4.50195 4.89543 4.50195 6L16.502 6C16.502 4.89543 15.6065 4 14.502 4H6.50195ZM16.502 7H4.50195V14C4.50195 15.1046 5.39738 16 6.50195 16H14.502C15.6065 16 16.502 15.1046 16.502 14V7Z"/>
</symbol><symbol viewBox="0 0 20 20" id="spark_job_definition_20_filled" xmlns="http://www.w3.org/2000/svg">
<path d="M10.3529 8.14645C10.4466 8.24022 10.4993 8.36739 10.4993 8.5V10.623L12.3473 9.556C12.4621 9.49074 12.598 9.47353 12.7254 9.50813C12.8529 9.54272 12.9614 9.62631 13.0274 9.74065C13.0935 9.855 13.1116 9.99081 13.0778 10.1185C13.0441 10.2461 12.9612 10.3552 12.8473 10.422L10.9993 11.489L12.8473 12.556C12.9612 12.6228 13.0441 12.7319 13.0778 12.8595C13.1116 12.9872 13.0935 13.123 13.0274 13.2373C12.9614 13.3517 12.8529 13.4353 12.7254 13.4699C12.598 13.5045 12.4621 13.4873 12.3473 13.422L10.4993 12.355V14.5C10.4993 14.6326 10.4466 14.7598 10.3529 14.8536C10.2591 14.9473 10.1319 15 9.99931 15C9.8667 15 9.73952 14.9473 9.64576 14.8536C9.55199 14.7598 9.49931 14.6326 9.49931 14.5V12.355L7.65131 13.422C7.59442 13.4553 7.5315 13.4771 7.46617 13.486C7.40084 13.495 7.33439 13.4909 7.27064 13.474C7.20689 13.4572 7.1471 13.4279 7.09472 13.3878C7.04234 13.3478 6.9984 13.2978 6.96543 13.2407C6.93246 13.1836 6.91111 13.1205 6.90261 13.0551C6.89411 12.9897 6.89863 12.9233 6.9159 12.8597C6.93318 12.796 6.96288 12.7364 7.00328 12.6843C7.04368 12.6322 7.09399 12.5886 7.15131 12.556L8.99931 11.489L7.15131 10.422C7.03741 10.3552 6.95454 10.2461 6.92079 10.1185C6.88704 9.99081 6.90515 9.855 6.97117 9.74065C7.03719 9.62631 7.14576 9.54272 7.27318 9.50813C7.4006 9.47353 7.53653 9.49074 7.65131 9.556L9.49931 10.623V8.5C9.49931 8.36739 9.55199 8.24022 9.64576 8.14645C9.73952 8.05268 9.8667 8 9.99931 8C10.1319 8 10.2591 8.05268 10.3529 8.14645Z"/>
<path d="M6 3C4.34315 3 3 4.34315 3 6V14C3 15.6569 4.34315 17 6 17H14C15.6569 17 17 15.6569 17 14V6C17 4.34315 15.6569 3 14 3H6ZM4 14V7H16V14C16 15.1046 15.1046 16 14 16H6C4.89543 16 4 15.1046 4 14Z"/>
</symbol><symbol viewBox="0 0 24 24" id="spark_job_definition_24" xmlns="http://www.w3.org/2000/svg">
<path d="M13.2515 10.75C13.2515 10.3358 12.9157 10 12.5015 10C12.0873 10 11.7515 10.3358 11.7515 10.75V12.7502L10.151 11.8262C9.79226 11.6191 9.33357 11.742 9.12647 12.1007C8.91936 12.4594 9.04226 12.9181 9.40098 13.1252L11.0015 14.0492L9.22278 15.0762C8.86406 15.2833 8.74116 15.742 8.94826 16.1007C9.15537 16.4594 9.61406 16.5823 9.97278 16.3752L11.7515 15.3483V17.25C11.7515 17.6642 12.0873 18 12.5015 18C12.9157 18 13.2515 17.6642 13.2515 17.25V15.3483L15.0301 16.3752C15.3889 16.5823 15.8476 16.4594 16.0547 16.1007C16.2618 15.742 16.1389 15.2833 15.7801 15.0762L14.0015 14.0492L15.6019 13.1252C15.9607 12.9181 16.0836 12.4594 15.8765 12.1007C15.6694 11.742 15.2107 11.6191 14.8519 11.8262L13.2515 12.7502V10.75Z"/>
<path d="M3.50195 6.25C3.50195 4.45507 4.95703 3 6.75195 3H18.252C20.0469 3 21.502 4.45507 21.502 6.25V17.75C21.502 19.5449 20.0469 21 18.252 21H6.75195C4.95703 21 3.50195 19.5449 3.50195 17.75V6.25ZM5.00195 7H20.002V6.25C20.002 5.2835 19.2185 4.5 18.252 4.5H6.75195C5.78545 4.5 5.00195 5.2835 5.00195 6.25V7ZM20.002 8.5H5.00195V17.75C5.00195 18.7165 5.78545 19.5 6.75195 19.5H18.252C19.2185 19.5 20.002 18.7165 20.002 17.75V8.5Z"/>
</symbol><symbol viewBox="0 0 2048 2048" id="sql_database_32_regular" xmlns="http://www.w3.org/2000/svg">
  <path d="M935 1829q0 45-18 75t-48 47-67 24-76 7q-17 0-36-1t-40-6-38-9-33-15v-95q12 12 30 21t37 16 40 9 37 4q17 0 37-3t37-10 29-22 12-36q0-28-19-47t-48-36-63-31-62-37-48-50-20-73q0-41 19-70t49-47 66-27 72-9q33 0 65 3t62 17v91q-26-20-58-27t-64-7q-16 0-35 3t-37 12-30 21-12 34q0 28 19 47t48 35 63 32 62 38 48 50 20 72zm495 103l161 116h-140l-100-77q-23 6-46 8t-46 3q-60 0-108-22t-81-60-51-88-18-109q0-63 18-117t52-93 86-62 118-23q61 0 109 21t82 60 51 89 18 110q0 70-24 134t-81 110zm8-235q0-40-9-78t-29-66-52-46-78-18q-43 0-75 17t-54 47-32 67-11 76q0 37 9 74t30 66 51 47 73 19h6-1 6q37 0 73-17 27-13 45-33t28-46 15-53 5-56zm291 198h216v78h-308v-556h92v478zM704 768q-67 0-144-6t-154-22-149-40-129-62v962q0 19 14 37t38 34 52 31 57 26 54 18 41 11l1 130q-35-6-76-18t-85-29-83-41-72-54-50-66-19-79V448q0-45 19-80t51-66q54-51 133-84t166-54 176-28 159-8q73 0 160 8t173 27 165 54 135 85q32 29 51 65t20 81v832h-128V638q-57 37-129 62t-149 40-154 21-144 7zm0-128q37 0 87-3t105-10 112-20 107-30 90-42 64-58q5-7 8-14t3-15q0-11-6-22t-14-21-19-18-19-14q-53-35-117-57t-132-36-137-19-132-5q-60 0-129 5t-139 19-134 36-116 57q-9 6-19 14t-18 18-15 20-6 23q0 8 3 15t8 14q23 33 63 57t91 43 107 30 112 19 105 11 87 3z"/>
</symbol><symbol viewBox="0 0 20 20" id="streaming_dataflow_20" xmlns="http://www.w3.org/2000/svg">
<path d="M9 5C9 3.34315 7.65685 2 6 2C4.34315 2 3 3.34315 3 5C3 6.4865 4.08114 7.72048 5.5 7.95852V12.0415C4.08114 12.2795 3 13.5135 3 15C3 16.6569 4.34315 18 6 18C7.65685 18 9 16.6569 9 15C9 13.5135 7.91886 12.2795 6.5 12.0415V11H10.0917C10.1545 10.8172 10.2534 10.6467 10.4 10.5C10.7 10.2 11 10 11.4 10H6.5V7.95852C7.91886 7.72048 9 6.4865 9 5ZM6 7C4.89543 7 4 6.10457 4 5C4 3.89543 4.89543 3 6 3C7.10457 3 8 3.89543 8 5C8 6.10457 7.10457 7 6 7ZM6 17C4.89543 17 4 16.1046 4 15C4 13.8954 4.89543 13 6 13C7.10457 13 8 13.8954 8 15C8 16.1046 7.10457 17 6 17Z"/>
<path d="M14.5 8.5C14.5 9.16187 14.2428 9.76367 13.8229 10.2109C13.2369 10.073 12.6265 10 12 10C12.8284 10 13.5 9.32843 13.5 8.5V7.95852C12.0811 7.72048 11 6.4865 11 5C11 3.34315 12.3431 2 14 2C15.6569 2 17 3.34315 17 5C17 6.4865 15.9189 7.72048 14.5 7.95852V8.5ZM16 5C16 3.89543 15.1046 3 14 3C12.8954 3 12 3.89543 12 5C12 6.10457 12.8954 7 14 7C15.1046 7 16 6.10457 16 5Z"/>
<path d="M11.4622 11.0204C11.6398 11.0069 11.8192 11 12.0001 11C15.8661 11 19.0001 14.134 19.0001 18C19.0001 18.1809 18.9932 18.3603 18.9797 18.5379C18.9588 18.8133 18.7186 19.0195 18.4432 18.9986C18.1679 18.9776 17.9616 18.7374 17.9826 18.4621C17.9942 18.3097 18.0001 18.1556 18.0001 18C18.0001 14.6863 15.3138 12 12.0001 12C11.8445 12 11.6904 12.0059 11.538 12.0175C11.2627 12.0385 11.0225 11.8322 11.0015 11.5569C10.9806 11.2815 11.1868 11.0413 11.4622 11.0204Z"/>
<path d="M11.4452 13.0305C11.6275 13.0103 11.8127 13 12.0001 13C14.7615 13 17.0001 15.2386 17.0001 18C17.0001 18.1874 16.9898 18.3726 16.9696 18.5549C16.9393 18.8294 16.6922 19.0273 16.4177 18.997C16.1432 18.9666 15.9453 18.7195 15.9757 18.4451C15.9918 18.2991 16.0001 18.1506 16.0001 18C16.0001 15.7909 14.2092 14 12.0001 14C11.8495 14 11.701 14.0083 11.555 14.0244C11.2806 14.0548 11.0335 13.8569 11.0031 13.5824C10.9728 13.3079 11.1707 13.0608 11.4452 13.0305Z"/>
<path d="M11.4006 15.06C11.5947 15.0206 11.7953 15 12.0001 15C13.657 15 15.0001 16.3431 15.0001 18C15.0001 18.2048 14.9795 18.4054 14.9401 18.5995C14.8852 18.8701 14.6212 19.0449 14.3506 18.99C14.08 18.9351 13.9051 18.6712 13.9601 18.4005C13.9863 18.2715 14.0001 18.1376 14.0001 18C14.0001 16.8954 13.1047 16 12.0001 16C11.8625 16 11.7286 16.0138 11.5996 16.04C11.3289 16.0949 11.065 15.9201 11.0101 15.6495C10.9552 15.3789 11.13 15.1149 11.4006 15.06Z"/>
<path d="M12.0001 19C12.5524 19 13.0001 18.5523 13.0001 18C13.0001 17.4477 12.5524 17 12.0001 17C11.4478 17 11.0001 17.4477 11.0001 18C11.0001 18.5523 11.4478 19 12.0001 19Z"/>
</symbol><symbol viewBox="0 0 20 20" id="streaming_dataflow_20_filled" xmlns="http://www.w3.org/2000/svg">
<path d="M12.0001 11C11.8192 11 11.6398 11.0069 11.4622 11.0204C11.1868 11.0413 10.9806 11.2815 11.0015 11.5569C11.0225 11.8322 11.2627 12.0385 11.538 12.0175C11.6904 12.0059 11.8445 12 12.0001 12C15.3138 12 18.0001 14.6863 18.0001 18C18.0001 18.1556 17.9942 18.3097 17.9826 18.4621C17.9616 18.7374 18.1679 18.9776 18.4432 18.9986C18.7186 19.0195 18.9588 18.8133 18.9797 18.5379C18.9932 18.3603 19.0001 18.1809 19.0001 18C19.0001 14.134 15.8661 11 12.0001 11ZM12.0001 13C11.8127 13 11.6275 13.0103 11.4452 13.0305C11.1707 13.0608 10.9728 13.3079 11.0031 13.5824C11.0335 13.8569 11.2806 14.0548 11.555 14.0244C11.701 14.0083 11.8495 14 12.0001 14C14.2092 14 16.0001 15.7909 16.0001 18C16.0001 18.1506 15.9918 18.2991 15.9757 18.4451C15.9453 18.7195 16.1432 18.9666 16.4177 18.997C16.6922 19.0273 16.9393 18.8294 16.9696 18.5549C16.9898 18.3726 17.0001 18.1874 17.0001 18C17.0001 15.2386 14.7615 13 12.0001 13ZM12.0001 15C11.7953 15 11.5947 15.0206 11.4006 15.06C11.13 15.1149 10.9552 15.3789 11.0101 15.6495C11.065 15.9201 11.3289 16.0949 11.5996 16.04C11.7286 16.0138 11.8625 16 12.0001 16C13.1047 16 14.0001 16.8954 14.0001 18C14.0001 18.1376 13.9863 18.2715 13.9601 18.4005C13.9051 18.6712 14.08 18.9351 14.3506 18.99C14.6212 19.0449 14.8852 18.8701 14.9401 18.5995C14.9795 18.4054 15.0001 18.2048 15.0001 18C15.0001 16.3431 13.657 15 12.0001 15ZM13.0001 18C13.0001 18.5523 12.5524 19 12.0001 19C11.4478 19 11.0001 18.5523 11.0001 18C11.0001 17.4477 11.4478 17 12.0001 17C12.5524 17 13.0001 17.4477 13.0001 18Z"/>
<path d="M6.5 7.95852C7.91886 7.72048 9 6.4865 9 5C9 3.34315 7.65685 2 6 2C4.34315 2 3 3.34315 3 5C3 6.4865 4.08114 7.72048 5.5 7.95852V12.0415C4.08114 12.2795 3 13.5135 3 15C3 16.6569 4.34315 18 6 18C7.65685 18 9 16.6569 9 15C9 13.5135 7.91886 12.2795 6.5 12.0415V11H10.0917C10.1545 10.8172 10.2534 10.6467 10.4 10.5C10.7 10.2 11 10 11.4 10H6.5V7.95852Z"/>
<path d="M12 10C12.6265 10 13.2369 10.073 13.8229 10.2109C14.2428 9.76367 14.5 9.16187 14.5 8.5V7.95852C15.9189 7.72048 17 6.4865 17 5C17 3.34315 15.6569 2 14 2C12.3431 2 11 3.34315 11 5C11 6.4865 12.0811 7.72048 13.5 7.95852V8.5C13.5 9.32843 12.8284 10 12 10Z"/>
</symbol><symbol viewBox="0 0 24 24" id="streaming_dataflow_24" xmlns="http://www.w3.org/2000/svg">
<path d="M11 5.5C11 7.26324 9.69615 8.72194 8 8.96456V11.5H13.4C12.9 11.5 12.5 11.7 12.2 12.1C11.9843 12.3876 11.872 12.6752 11.8259 13H8V15.0354C9.69615 15.2781 11 16.7368 11 18.5C11 20.433 9.433 22 7.5 22C5.567 22 4 20.433 4 18.5C4 16.9145 5.05426 15.5752 6.5 15.1449V8.85506C5.05426 8.42479 4 7.08551 4 5.5C4 3.567 5.567 2 7.5 2C9.433 2 11 3.567 11 5.5ZM7.5 7.5C8.60457 7.5 9.5 6.60457 9.5 5.5C9.5 4.39543 8.60457 3.5 7.5 3.5C6.39543 3.5 5.5 4.39543 5.5 5.5C5.5 6.60457 6.39543 7.5 7.5 7.5ZM9.5 18.5C9.5 17.3954 8.60457 16.5 7.5 16.5C6.39543 16.5 5.5 17.3954 5.5 18.5C5.5 19.6046 6.39543 20.5 7.5 20.5C8.60457 20.5 9.5 19.6046 9.5 18.5Z"/>
<path d="M16.8561 11.9465C15.9526 11.6567 14.9927 11.5 14 11.5H14.25C15.4926 11.5 16.5 10.4926 16.5 9.25V8.85506C15.0543 8.42479 14 7.08551 14 5.5C14 3.567 15.567 2 17.5 2C19.433 2 21 3.567 21 5.5C21 7.26324 19.6961 8.72194 18 8.96456V9.25C18 10.3085 17.5614 11.2646 16.8561 11.9465ZM17.5 7.5C18.6046 7.5 19.5 6.60457 19.5 5.5C19.5 4.39543 18.6046 3.5 17.5 3.5C16.3954 3.5 15.5 4.39543 15.5 5.5C15.5 6.60457 16.3954 7.5 17.5 7.5Z"/>
<path d="M13.4525 12.5174C13.6336 12.5058 13.8163 12.5 14.0001 12.5C18.6946 12.5 22.5001 16.3056 22.5001 21C22.5001 21.1839 22.4943 21.3665 22.4827 21.5477C22.4564 21.961 22.1 22.2748 21.6866 22.2485C21.2732 22.2222 20.9595 21.8657 20.9858 21.4523C20.9953 21.3029 21.0001 21.1521 21.0001 21C21.0001 17.134 17.8661 14 14.0001 14C13.8481 14 13.6972 14.0048 13.5478 14.0144C13.1344 14.0407 12.778 13.7269 12.7516 13.3135C12.7253 12.9002 13.0391 12.5437 13.4525 12.5174Z"/>
<path d="M13.4296 15.0268C13.6176 15.0091 13.8079 15 14.0001 15C17.3138 15 20.0001 17.6863 20.0001 21C20.0001 21.1922 19.9911 21.3826 19.9733 21.5705C19.9343 21.9829 19.5685 22.2856 19.1561 22.2467C18.7437 22.2077 18.441 21.8418 18.48 21.4295C18.4933 21.2883 18.5001 21.1451 18.5001 21C18.5001 18.5147 16.4854 16.5 14.0001 16.5C13.8551 16.5 13.7118 16.5068 13.5707 16.5202C13.1583 16.5591 12.7924 16.2564 12.7535 15.844C12.7145 15.4317 13.0172 15.0658 13.4296 15.0268Z"/>
<path d="M13.3646 17.5577C13.5713 17.5197 13.7837 17.5 14.0001 17.5C15.9331 17.5 17.5001 19.067 17.5001 21C17.5001 21.2164 17.4804 21.4289 17.4424 21.6355C17.3676 22.0429 16.9767 22.3125 16.5693 22.2377C16.1619 22.1628 15.8923 21.7719 15.9671 21.3645C15.9887 21.2468 16.0001 21.1251 16.0001 21C16.0001 19.8954 15.1047 19 14.0001 19C13.875 19 13.7533 19.0114 13.6356 19.033C13.2282 19.1078 12.8373 18.8382 12.7625 18.4308C12.6876 18.0234 12.9572 17.6325 13.3646 17.5577Z"/>
<path d="M14.0001 22C14.5524 22 15.0001 21.5523 15.0001 21C15.0001 20.4477 14.5524 20 14.0001 20C13.4478 20 13.0001 20.4477 13.0001 21C13.0001 21.5523 13.4478 22 14.0001 22Z"/>
</symbol><symbol viewBox="0 0 20 20" id="streaming_dataset_20" xmlns="http://www.w3.org/2000/svg">
<path d="M14.5 3C15.8807 3 17 4.11929 17 5.5V11.7665C16.6852 11.5132 16.3509 11.2831 16 11.079V5.5C16 4.67157 15.3284 4 14.5 4H5.5C4.67157 4 4 4.67157 4 5.5V14.5C4 15.3284 4.67157 16 5.5 16H10.037C10.1445 16.2655 10.3223 16.5223 10.5 16.7C10.4147 16.7853 10.3374 16.8869 10.2706 17H5.5C4.11929 17 3 15.8807 3 14.5V5.5C3 4.11929 4.11929 3 5.5 3H14.5Z"/>
<path d="M10 11C10.0305 11 10.0606 11.0014 10.0904 11.004C10.0258 11.194 10 11.397 10 11.6C10 12 10.2 12.3 10.4 12.5C10.2662 12.6338 10.1722 12.8074 10.1091 12.9941C10.0733 12.998 10.0369 13 10 13C9.44772 13 9 12.5523 9 12C9 11.4477 9.44772 11 10 11Z"/>
<path d="M8 12C8 11.4477 7.55228 11 7 11C6.44772 11 6 11.4477 6 12C6 12.5523 6.44772 13 7 13C7.55228 13 8 12.5523 8 12Z"/>
<path d="M7 7C7.55228 7 8 7.44772 8 8C8 8.55228 7.55228 9 7 9C6.44772 9 6 8.55228 6 8C6 7.44772 6.44772 7 7 7Z"/>
<path d="M11 8C11 7.44772 10.5523 7 10 7C9.44772 7 9 7.44772 9 8C9 8.55228 9.44772 9 10 9C10.5523 9 11 8.55228 11 8Z"/>
<path d="M13 7C13.5523 7 14 7.44772 14 8C14 8.55228 13.5523 9 13 9C12.4477 9 12 8.55228 12 8C12 7.44772 12.4477 7 13 7Z"/>
<path d="M11.4622 11.0204C11.6398 11.0069 11.8192 11 12.0001 11C15.8661 11 19.0001 14.134 19.0001 18C19.0001 18.1809 18.9932 18.3603 18.9797 18.5379C18.9588 18.8133 18.7186 19.0195 18.4432 18.9986C18.1679 18.9776 17.9616 18.7374 17.9826 18.4621C17.9942 18.3097 18.0001 18.1556 18.0001 18C18.0001 14.6863 15.3138 12 12.0001 12C11.8445 12 11.6904 12.0059 11.538 12.0175C11.2627 12.0385 11.0225 11.8322 11.0015 11.5569C10.9806 11.2815 11.1868 11.0413 11.4622 11.0204Z"/>
<path d="M11.4452 13.0305C11.6275 13.0103 11.8127 13 12.0001 13C14.7615 13 17.0001 15.2386 17.0001 18C17.0001 18.1874 16.9898 18.3726 16.9696 18.5549C16.9393 18.8294 16.6922 19.0273 16.4177 18.997C16.1432 18.9666 15.9453 18.7195 15.9757 18.4451C15.9918 18.2991 16.0001 18.1506 16.0001 18C16.0001 15.7909 14.2092 14 12.0001 14C11.8495 14 11.701 14.0083 11.555 14.0244C11.2806 14.0548 11.0335 13.8569 11.0031 13.5824C10.9728 13.3079 11.1707 13.0608 11.4452 13.0305Z"/>
<path d="M11.4006 15.06C11.5947 15.0206 11.7953 15 12.0001 15C13.657 15 15.0001 16.3431 15.0001 18C15.0001 18.2048 14.9795 18.4054 14.9401 18.5995C14.8852 18.8701 14.6212 19.0449 14.3506 18.99C14.08 18.9351 13.9051 18.6712 13.9601 18.4005C13.9863 18.2715 14.0001 18.1376 14.0001 18C14.0001 16.8954 13.1047 16 12.0001 16C11.8625 16 11.7286 16.0138 11.5996 16.04C11.3289 16.0949 11.065 15.9201 11.0101 15.6495C10.9552 15.3789 11.13 15.1149 11.4006 15.06Z"/>
<path d="M12.0001 19C12.5524 19 13.0001 18.5523 13.0001 18C13.0001 17.4477 12.5524 17 12.0001 17C11.4478 17 11.0001 17.4477 11.0001 18C11.0001 18.5523 11.4478 19 12.0001 19Z"/>
</symbol><symbol viewBox="0 0 20 20" id="streaming_dataset_20_filled" xmlns="http://www.w3.org/2000/svg">
<path d="M12.0001 11C11.8192 11 11.6398 11.0069 11.4622 11.0204C11.1868 11.0413 10.9806 11.2815 11.0015 11.5569C11.0225 11.8322 11.2627 12.0385 11.538 12.0175C11.6904 12.0059 11.8445 12 12.0001 12C15.3138 12 18.0001 14.6863 18.0001 18C18.0001 18.1556 17.9942 18.3097 17.9826 18.4621C17.9616 18.7374 18.1679 18.9776 18.4432 18.9986C18.7186 19.0195 18.9588 18.8133 18.9797 18.5379C18.9932 18.3603 19.0001 18.1809 19.0001 18C19.0001 14.134 15.8661 11 12.0001 11ZM12.0001 13C11.8127 13 11.6275 13.0103 11.4452 13.0305C11.1707 13.0608 10.9728 13.3079 11.0031 13.5824C11.0335 13.8569 11.2806 14.0548 11.555 14.0244C11.701 14.0083 11.8495 14 12.0001 14C14.2092 14 16.0001 15.7909 16.0001 18C16.0001 18.1506 15.9918 18.2991 15.9757 18.4451C15.9453 18.7195 16.1432 18.9666 16.4177 18.997C16.6922 19.0273 16.9393 18.8294 16.9696 18.5549C16.9898 18.3726 17.0001 18.1874 17.0001 18C17.0001 15.2386 14.7615 13 12.0001 13ZM12.0001 15C11.7953 15 11.5947 15.0206 11.4006 15.06C11.13 15.1149 10.9552 15.3789 11.0101 15.6495C11.065 15.9201 11.3289 16.0949 11.5996 16.04C11.7286 16.0138 11.8625 16 12.0001 16C13.1047 16 14.0001 16.8954 14.0001 18C14.0001 18.1376 13.9863 18.2715 13.9601 18.4005C13.9051 18.6712 14.08 18.9351 14.3506 18.99C14.6212 19.0449 14.8852 18.8701 14.9401 18.5995C14.9795 18.4054 15.0001 18.2048 15.0001 18C15.0001 16.3431 13.657 15 12.0001 15ZM13.0001 18C13.0001 18.5523 12.5524 19 12.0001 19C11.4478 19 11.0001 18.5523 11.0001 18C11.0001 17.4477 11.4478 17 12.0001 17C12.5524 17 13.0001 17.4477 13.0001 18Z"/>
<path d="M17 5.5C17 4.11929 15.8807 3 14.5 3H5.5C4.11929 3 3 4.11929 3 5.5V14.5C3 15.8807 4.11929 17 5.5 17H10.2706C10.3374 16.8869 10.4147 16.7853 10.5 16.7C10.3 16.5 10.1 16.2 10 15.9C9.90001 15.4 10.1 14.9 10.4 14.6C10.2 14.3 10 14 10 13.7C10 13.4784 10.0307 13.2261 10.1091 12.9941C10.0733 12.998 10.0369 13 10 13C9.44772 13 9 12.5523 9 12C9 11.4477 9.44772 11 10 11C10.0305 11 10.0606 11.0014 10.0904 11.004C10.153 10.8197 10.2523 10.6477 10.4 10.5C10.7 10.2 11 10 11.4 10H12C13.8876 10 15.6279 10.6625 17 11.7665V5.5ZM6 12C6 11.4477 6.44772 11 7 11C7.55228 11 8 11.4477 8 12C8 12.5523 7.55228 13 7 13C6.44772 13 6 12.5523 6 12ZM6 8C6 7.44772 6.44772 7 7 7C7.55228 7 8 7.44772 8 8C8 8.55228 7.55228 9 7 9C6.44772 9 6 8.55228 6 8ZM9 8C9 7.44772 9.44772 7 10 7C10.5523 7 11 7.44772 11 8C11 8.55228 10.5523 9 10 9C9.44772 9 9 8.55228 9 8ZM12 8C12 7.44772 12.4477 7 13 7C13.5523 7 14 7.44772 14 8C14 8.55228 13.5523 9 13 9C12.4477 9 12 8.55228 12 8Z"/>
</symbol><symbol viewBox="0 0 24 24" id="streaming_dataset_24" xmlns="http://www.w3.org/2000/svg">
<path d="M18.2544 3C20.0493 3 21.5044 4.45507 21.5044 6.25V16.913C21.0793 16.2512 20.5746 15.644 20.0044 15.1057V6.25C20.0044 5.2835 19.2209 4.5 18.2544 4.5H6.75439C5.7879 4.5 5.00439 5.2835 5.00439 6.25V17.75C5.00439 18.7165 5.7879 19.5 6.75439 19.5H11.2869C11.2918 19.5329 11.2977 19.5662 11.3044 19.6C11.4044 20.1 11.6044 20.4 12.0044 20.7C11.9298 20.7995 11.8614 20.899 11.8007 21H6.75439C4.95947 21 3.50439 19.5449 3.50439 17.75V6.25C3.50439 4.45507 4.95947 3 6.75439 3H18.2544Z"/>
<path d="M9.50439 14.75C9.50439 14.0596 8.94475 13.5 8.25439 13.5C7.56404 13.5 7.00439 14.0596 7.00439 14.75C7.00439 15.4404 7.56404 16 8.25439 16C8.94475 16 9.50439 15.4404 9.50439 14.75Z"/>
<path d="M8.25439 8.5C8.94475 8.5 9.50439 9.05964 9.50439 9.75C9.50439 10.4404 8.94475 11 8.25439 11C7.56404 11 7.00439 10.4404 7.00439 9.75C7.00439 9.05964 7.56404 8.5 8.25439 8.5Z"/>
<path d="M13.7544 9.75C13.7544 9.05964 13.1948 8.5 12.5044 8.5C11.814 8.5 11.2544 9.05964 11.2544 9.75C11.2544 10.4404 11.814 11 12.5044 11C13.1948 11 13.7544 10.4404 13.7544 9.75Z"/>
<path d="M16.7544 8.5C17.4448 8.5 18.0044 9.05964 18.0044 9.75C18.0044 10.4404 17.4448 11 16.7544 11C16.064 11 15.5044 10.4404 15.5044 9.75C15.5044 9.05964 16.064 8.5 16.7544 8.5Z"/>
<path d="M12.9569 13.5174C13.138 13.5058 13.3206 13.5 13.5045 13.5C18.1989 13.5 22.0045 17.3056 22.0045 22C22.0045 22.1839 21.9987 22.3665 21.9871 22.5477C21.9608 22.961 21.6044 23.2748 21.191 23.2485C20.7776 23.2222 20.4639 22.8657 20.4902 22.4523C20.4997 22.3029 20.5045 22.1521 20.5045 22C20.5045 18.134 17.3705 15 13.5045 15C13.3525 15 13.2016 15.0048 13.0522 15.0144C12.6388 15.0407 12.2824 14.7269 12.256 14.3135C12.2297 13.9002 12.5435 13.5437 12.9569 13.5174Z"/>
<path d="M12.934 16.0268C13.122 16.0091 13.3123 16 13.5045 16C16.8182 16 19.5045 18.6863 19.5045 22C19.5045 22.1922 19.4955 22.3826 19.4777 22.5705C19.4387 22.9829 19.0729 23.2856 18.6605 23.2467C18.2481 23.2077 17.9454 22.8418 17.9844 22.4295C17.9977 22.2883 18.0045 22.1451 18.0045 22C18.0045 19.5147 15.9898 17.5 13.5045 17.5C13.3595 17.5 13.2162 17.5068 13.0751 17.5202C12.6627 17.5591 12.2968 17.2564 12.2579 16.844C12.2189 16.4317 12.5216 16.0658 12.934 16.0268Z"/>
<path d="M12.869 18.5577C13.0757 18.5197 13.2881 18.5 13.5045 18.5C15.4375 18.5 17.0045 20.067 17.0045 22C17.0045 22.2164 16.9848 22.4289 16.9468 22.6355C16.872 23.0429 16.4811 23.3125 16.0737 23.2377C15.6663 23.1628 15.3967 22.7719 15.4715 22.3645C15.4931 22.2468 15.5045 22.1251 15.5045 22C15.5045 20.8954 14.6091 20 13.5045 20C13.3794 20 13.2577 20.0114 13.14 20.033C12.7326 20.1078 12.3417 19.8382 12.2669 19.4308C12.192 19.0234 12.4616 18.6325 12.869 18.5577Z"/>
<path d="M13.5045 23C14.0568 23 14.5045 22.5523 14.5045 22C14.5045 21.4477 14.0568 21 13.5045 21C12.9522 21 12.5045 21.4477 12.5045 22C12.5045 22.5523 12.9522 23 13.5045 23Z"/>
</symbol><symbol viewBox="0 0 20 20" fill="none" id="supply_chain_center_20" xmlns="http://www.w3.org/2000/svg">
<path d="M16.9935 11.5373L16.9935 11.5326V6.25075C16.9935 5.59084 16.666 4.97395 16.1193 4.60428L12.3755 2.07246C12.2117 1.96171 11.9973 1.96081 11.8326 2.07018L9.99009 3.29372L8.22721 2.09834C8.02906 1.96398 7.7692 1.96326 7.57031 2.09653L3.89598 4.55857C3.34527 4.92758 3.01477 5.54686 3.01477 6.20978V11.5357L3.01471 11.5536V13.0304C3.01471 13.7056 3.34918 14.337 3.90779 14.7162L7.30873 17.0253C7.37325 17.0691 7.43865 17.111 7.50485 17.151L7.74828 17.3158C9.10872 18.2372 10.895 18.2298 12.2477 17.2971L16.134 14.6178C16.6721 14.2468 16.9935 13.635 16.9935 12.9814V11.5373ZM12.9272 9.67601L9.97275 11.6791L7.04366 9.68695L10.0004 7.67442L12.9272 9.67601ZM16.0182 12.9814C16.0182 13.3143 15.8545 13.6259 15.5805 13.8149L11.6942 16.4942C10.6723 17.1987 9.32286 17.2043 8.29515 16.5083L7.70243 16.1069L7.7016 16.1099L7.15438 15.7358L6.33461 15.1806L6.3399 15.179L5.09998 14.3314C5.90929 14.8846 6.97449 14.8872 7.78647 14.3379L8.30031 13.9902L8.29997 13.9914L15.0595 9.40864C15.6538 8.9886 16.0079 8.30575 16.0079 7.57672V8.76299L16.0182 8.75533V12.9814ZM7.89613 3.05217L11.2858 5.35068C11.3808 5.4151 11.381 5.555 11.2861 5.61958L6.16633 9.10438L6.16887 9.10594L4.97865 9.91756C4.36359 10.337 3.99561 11.0333 3.99561 11.7778V10.5846L3.99003 10.5888V6.20978C3.99003 5.87213 4.15836 5.55671 4.43886 5.36876L7.89613 3.05217Z" fill="black"/>
</symbol><symbol viewBox="0 0 24 24" fill="none" id="supply_chain_center_24" xmlns="http://www.w3.org/2000/svg">
<path d="M9.74732 2.14708L11.9878 3.61683L14.2187 2.14278C14.5025 1.95523 14.8708 1.955 15.1549 2.14216L19.763 5.1782C20.5352 5.68698 21 6.54982 21 7.47458V15.5775C21 16.4943 20.5431 17.3508 19.7817 17.8614L14.9065 21.1308C13.1449 22.3123 10.8454 22.3175 9.07831 21.1442L6.11718 19.178L4.27278 18.0034C3.48001 17.4986 3 16.6238 3 15.6839V7.42989C3 6.50069 3.46923 5.63433 4.24747 5.12665L8.81668 2.1459C9.09958 1.96136 9.4649 1.96182 9.74732 2.14708ZM8.47447 11.5799L11.8651 13.8144L15.4159 11.4514L12.038 9.21506L8.47447 11.5799ZM4.5 7.42989V12.4172L4.5025 12.4156V13.8784C4.5025 13.0218 4.90276 12.2183 5.57753 11.7022L13.5317 6.42354L9.28011 3.63454L5.06703 6.38296C4.71329 6.61373 4.5 7.00752 4.5 7.42989ZM9.27154 19.472L9.90804 19.8946C11.1702 20.7327 12.8127 20.7289 14.071 19.885L18.9462 16.6156C19.2923 16.3835 19.5 15.9942 19.5 15.5775L19.5007 9.08135C19.5007 9.9267 19.1095 10.7202 18.4485 11.235L9.16522 17.4129C8.15946 17.9644 6.92229 17.9186 5.95538 17.2768L9.27008 19.477L9.27154 19.472Z" fill="black"/>
</symbol><symbol viewBox="0 0 20 20" id="workbook_20" xmlns="http://www.w3.org/2000/svg">
<path d="M5 15.5V17.5C5 18 5.4 18.5 6 18.5H17C17.6 18.5 18 18 18 17.5V3.5C18 3 17.6 2.5 17 2.5H6C5.4 2.5 5 3 5 3.5V5.5H3C2.4 5.5 2 6 2 6.5V14.5C2 15 2.4 15.5 3 15.5H5ZM12 11.5H17V14.5H12V11.5ZM12 10.5V7.5H17V10.5H12ZM6 15.5H11V17.5H6V15.5ZM12 17.5V15.5H17V17.5H12ZM17 6.5H12V3.5H17V6.5ZM6 3.5H11V5.5H6V3.5ZM8.1 13.7L7 11.7L5.9 13.8H3.9L5.9 10.5L4 7.3H6L7 9.3L8.1 7.3H10L8.1 10.5L10.1 13.8H8.1V13.7Z"/>
</symbol></svg>